<svg width="50" height="35" viewBox="0 0 50 35" fill="none" xmlns="http://www.w3.org/2000/svg">
<rect x="0.25" y="0.25" width="49.5" height="34.5" rx="6.20455" fill="white" stroke="white" stroke-width="0.5"/>
<path d="M30.4224 17.4571C30.3951 14.7089 32.6634 13.3909 32.7648 13.3243C31.49 11.4603 29.5039 11.2045 28.797 11.1754C27.1081 11.0039 25.4998 12.1703 24.643 12.1703C23.788 12.1703 22.4642 11.2006 21.0637 11.2253C19.2213 11.2526 17.5231 12.2968 16.575 13.9461C14.6616 17.2652 16.0855 22.1843 17.95 24.8782C18.8615 26.1949 19.9485 27.6766 21.3746 27.6223C22.7491 27.5681 23.2676 26.7333 24.9292 26.7333C26.5908 26.7333 27.0574 27.6223 28.5112 27.5946C29.9894 27.5677 30.9264 26.2527 31.8304 24.9307C32.8769 23.4009 33.3077 21.9197 33.3333 21.8447C33.3011 21.8297 30.452 20.7383 30.4224 17.4571Z" fill="black"/>
<path d="M27.6905 9.39254C28.4467 8.47444 28.9591 7.19871 28.8198 5.92871C27.7284 5.97281 26.4072 6.65411 25.6236 7.57133C24.9216 8.38536 24.3078 9.68138 24.4723 10.9284C25.6898 11.0228 26.9316 10.3089 27.6905 9.39254Z" fill="black"/>
</svg>
