<svg width="50" height="35" viewBox="0 0 50 35" fill="none" xmlns="http://www.w3.org/2000/svg">
<rect x="0.25" y="0.25" width="49.5" height="34.5" rx="6.20455" fill="white" stroke="white" stroke-width="0.5"/>
<path d="M37 17.5C37 11.1487 31.8513 6 25.5 6C19.1487 6 14 11.1487 14 17.5C14 23.8513 19.1487 29 25.5 29C31.8513 29 37 23.8513 37 17.5Z" fill="#45619D"/>
<path d="M27.3256 8.75977C24.2076 8.75977 23.1784 10.1904 23.1784 12.6439V14.586H21.13V17.5012H23.1784V26.2398H26.9562V17.5012H29.5236L29.8686 14.586H26.9562V12.8538C26.9562 12.0708 27.128 11.6736 28.3434 11.6736H29.8686V8.75977H27.3256Z" fill="white"/>
</svg>
