<svg width="50" height="35" viewBox="0 0 50 35" fill="none" xmlns="http://www.w3.org/2000/svg">
<rect x="0.25" y="0.25" width="49.5" height="34.5" rx="6.20455" fill="white" stroke="white" stroke-width="0.5"/>
<path fill-rule="evenodd" clip-rule="evenodd" d="M20.0946 17.5005C20.0946 16.8834 20.1971 16.2918 20.3801 15.7369L17.1783 13.292C16.5543 14.5589 16.2028 15.9866 16.2028 17.5005C16.2028 19.0132 16.554 20.4399 17.177 21.706L20.377 19.2564C20.1957 18.704 20.0946 18.1146 20.0946 17.5005Z" fill="#FBBC05"/>
<path fill-rule="evenodd" clip-rule="evenodd" d="M25.7163 11.8864C27.0569 11.8864 28.2677 12.3614 29.219 13.1386L31.9865 10.375C30.3001 8.9068 28.1379 8 25.7163 8C21.9567 8 18.7255 10.15 17.1783 13.2915L20.38 15.7364C21.1177 13.4971 23.2206 11.8864 25.7163 11.8864Z" fill="#EA4335"/>
<path fill-rule="evenodd" clip-rule="evenodd" d="M25.7163 23.1137C23.2208 23.1137 21.1179 21.503 20.3801 19.2637L17.1783 21.7081C18.7255 24.8501 21.9567 27.0001 25.7163 27.0001C28.0367 27.0001 30.2521 26.1761 31.9148 24.6324L28.8757 22.2829C28.0181 22.8231 26.9383 23.1137 25.7163 23.1137Z" fill="#34A853"/>
<path fill-rule="evenodd" clip-rule="evenodd" d="M34.7973 17.5007C34.7973 16.9393 34.7107 16.3347 34.581 15.7734H25.7163V19.4439H30.819C30.5638 20.6953 29.8694 21.6574 28.8757 22.2835L31.9148 24.6329C33.6613 23.012 34.7973 20.5972 34.7973 17.5007Z" fill="#4285F4"/>
</svg>
