<svg width="211" height="159" viewBox="0 0 211 159" fill="none" xmlns="http://www.w3.org/2000/svg">
    <path d="M90.79 1.542S81.14-1.534 73.757 6.066c-7.381 7.6-3.49 22.779-3.49 28.11 0 5.33-6.787 39.208-6.787 39.208S60.193 85.696 69.226 93.5c9.033 7.804 25.726 7.126 32.852-7.894 7.125-15.02-.43-36.433-.43-47.502 0-11.069 1.644-18.466-.822-26.465A15.56 15.56 0 0 0 90.79 1.542z" fill="#38347D"/>
    <path d="M87.925 7.295S78.621 18.86 72.34 22.126M79.88 6.293s-4.773 11.559-9.048 14.831" stroke="#FEFEFE" stroke-width="1.346" stroke-linecap="round" stroke-linejoin="round"/>
    <path d="M106.655 46.051a7.691 7.691 0 0 1 3.227 5.429c.55 3.845-3.552 12.735-4.374 17.13a156.983 156.983 0 0 0-1.5 16.099c0 1.372 4.675 21.7 5.497 26.646.822 4.946-.415 16.588-1.101 17.44-.686.852-2.609-3.159-2.745-5.768-.135-2.609-5.217-22.665-7.14-28.705-1.923-6.04-1.38-14.009-1.38-14.009s2.617-18.27 2.617-25.274c0-7.005.21-12.245.21-12.245l6.689 3.257z" fill="#38347D"/>
    <path d="M108.388 128.765c.687-.822 1.923-12.502 1.101-17.441-.822-4.938-5.481-25.274-5.481-26.616.226-5.378.73-10.74 1.508-16.067.302-1.41.689-2.8 1.161-4.163a11.885 11.885 0 0 1-5.18 1.177c-.958 0-1.893.882-2.79 2.382-.754 6.38-1.576 12.275-1.576 12.275s-.543 7.963 1.38 14.01 7.005 26.096 7.14 28.705c.136 2.608 2.051 6.559 2.737 5.738z" fill="#FFC3BD" fill-opacity=".9"/>
    <path d="M80.815 157.605c.302-3.378.935-10.254 1.342-12.908.55-3.567 1.644-10.85 1.644-10.85l2.782 23.758h19.061c.686-5.18 2.413-19.069 2.745-28.84.414-12.223-8.792-37.497-9.048-39.42-.257-1.922.271-7.54.271-9.198 0-1.66 4.796-12.185 5.203-17.546.407-5.36 1.651-7.005 1.651-7.005l.686-9.048c-.415-.135-6.575-4.983-12.758-6.786a23.05 23.05 0 0 0-11.536-.271s-8.927 3.981-13.459 5.904c-4.531 1.922-8.256 5.632-8.369 10.435-.113 4.803 8.784 25.274 9.614 26.79.829 1.515-1.788 6.861-2.888 9.613-1.101 2.752-5.633 12.637-8.649 23.623-2.586 9.38-.86 34.586-.294 41.749h22.002z" fill="#38347D"/>
    <path d="M89.983 59.133c2.059-.55 4.675-9.048 4.947-13.46.15-2.465.301-4.305.233-5.662-.256-.083-.52-.173-.754-.249a23.05 23.05 0 0 0-11.536-.271l-3.634 1.614a11.38 11.38 0 0 0 .61 5.798c1.486 4.124 8.076 12.78 10.134 12.23z" fill="#fff" stroke="#38347D" stroke-width="1.346" stroke-linecap="round" stroke-linejoin="round"/>
    <path d="M80.785 35.276s.693 8.09 1.108 10.074c.415 1.983 4.584 9.802 6.944 9.372 2.36-.43 3.86-10.647 3.86-11.642 0-.995.28-9.048.28-9.048s-4.969 4.08-12.192 1.244z" fill="#FFC3BD" stroke="#38347D" stroke-width="1.346" stroke-linecap="round" stroke-linejoin="round"/>
    <path d="M67.183 46.768s-5.625.279-8.785 6.597c-3.159 6.319.543 10.556 1.78 13.044 1.236 2.488 4.675 12.637 5.768 15.66 1.093 3.024 3.303 6.59 7.148 11.537 3.845 4.946 11.943 15.517 11.943 15.517l2.202 3.846s3.71 4.26 4.117 4.396c.407.135 2.888 3.295 3.845 1.372.958-1.923 0-8.784 0-8.784s1.508 3.016 2.066 2.33c.558-.686-.143-2.194-.686-3.846-.543-1.651-5.625-4.803-6.733-4.946-1.109-.143-2.473-1.508-4.117-4.803-1.644-3.295-2.888-9.048-5.497-12.501-2.608-3.454-6.032-8.513-6.032-8.513s-3.845-13.738-3.845-14.288c.28-2.566-.095-5.16-1.093-7.54" fill="#38347D"/>
    <path d="M89.848 103.491c-1.101-.136-2.474-1.508-4.117-4.803-1.644-3.295-2.888-9.048-5.497-12.502-2.609-3.453-6.032-8.512-6.032-8.512s-2.601-9.305-3.521-12.901c-5.052-.709-8.384.309-10.503 1.606 1.236 2.473 4.675 12.637 5.768 15.66 1.093 3.024 3.302 6.59 7.148 11.537 3.845 4.946 11.943 15.517 11.943 15.517l2.202 3.845s3.71 4.26 4.117 4.396c.407.136 2.887 3.295 3.845 1.372.958-1.922 0-8.784 0-8.784s1.508 3.016 2.066 2.33c.558-.686-.143-2.194-.686-3.845-.543-1.652-5.625-4.773-6.733-4.916z" fill="#FFC3BD" fill-opacity=".9"/>
    <path d="M80.815 157.605c.302-3.378.935-10.255 1.342-12.909.55-3.566 1.644-10.85 1.644-10.85l2.782 23.759h19.061c.686-5.18 2.413-19.069 2.745-28.841.173-5.089-1.327-12.448-3.152-19.438-16.113 3.529-34.382.973-43.868-.867-.799 2.36-1.583 4.841-2.262 7.397-2.586 9.379-.86 34.586-.294 41.749h22.002z" fill="#FC0"/>
    <path d="M76.012 23.227s-1.23-.55-1.23 1.915c0 2.466 2.738 4.102 2.738 4.102l-1.508-6.017z" fill="#fff" stroke="#5D5349" stroke-width="1.346" stroke-linecap="round" stroke-linejoin="round"/>
    <path d="M90.12 9.686s-4.39 6.182-8.242 8.655a61.623 61.623 0 0 1-6.175 3.567s1.922 7.97 2.744 10.556c.822 2.586 3.288 7.155 8.234 7.427 4.946.271 7.148-4.954 8.113-7.427.55-1.278.844-2.65.867-4.042a5.744 5.744 0 0 0 2.609-3.98c.271-2.61-.415-2.474-.415-2.474s-.754.852-2.39-.43c-1.327-.987-5.783-8.143-5.346-11.852z" fill="#FFC3BD" fill-opacity=".9"/>
    <path d="M79.646 25.3s1.938-1.417 4.773 0M88.415 25.557s2.322-2.066 4.773-.384M79.262 22.201s1.033-1.93 4.524-1.025M88.415 21.305a3.99 3.99 0 0 1 5.278.512M88.03 29.81s-2.065 1.417-2.963 0M84.291 32.78s2.579 1.026 3.868-.128" stroke="#5D5349" stroke-width="1.346" stroke-linecap="round" stroke-linejoin="round"/>
    <path d="M40.71 106.899s6.031 13.391 7.472 16.09c1.44 2.7 3.114 10.383 3.317 14.945.204 4.561 0 5.504-1.033 5.398-1.033-.105-1.455-5.813-1.455-6.748v-1.448s-.52 5.391-1.35 6.432c-.83 1.04-1.975 2.179-2.073 1.561-.098-.619.203-1.667.618-3.22.25-1.194.322-2.419.211-3.634 0 0-.626 2.903-2.073 3.943-1.448 1.041-3.016 1.455-2.496.626.52-.829 1.87-1.764 2.179-2.805.214-.953.32-1.926.317-2.903 0 0-1.976 3.212-2.805 3.732-.83.521-.83-.618-.31-1.138.52-.52 1.66-4.049 1.66-4.049s-.317-.211-1.765-3.423-2.262-8.83-2.7-11.009c-.437-2.179-1.243-5.082-1.243-5.082l-7.993-13.391s-.625-3.22 2.383-3.77c3.008-.55 9.138 9.893 9.138 9.893z" fill="#fff"/>
    <path opacity=".15" d="M40.71 106.899s6.031 13.391 7.472 16.09c1.44 2.7 3.114 10.383 3.317 14.945.204 4.561 0 5.504-1.033 5.398-1.033-.105-1.455-5.813-1.455-6.748v-1.448s-.52 5.391-1.35 6.432c-.83 1.04-1.975 2.179-2.073 1.561-.098-.619.203-1.667.618-3.22.25-1.194.322-2.419.211-3.634 0 0-.626 2.903-2.073 3.943-1.448 1.041-3.016 1.455-2.496.626.52-.829 1.87-1.764 2.179-2.805.214-.953.32-1.926.317-2.903 0 0-1.976 3.212-2.805 3.732-.83.521-.83-.618-.31-1.138.52-.52 1.66-4.049 1.66-4.049s-.317-.211-1.765-3.423-2.262-8.83-2.7-11.009c-.437-2.179-1.243-5.082-1.243-5.082l-7.993-13.391s-.625-3.22 2.383-3.77c3.008-.55 9.138 9.893 9.138 9.893z" fill="#000"/>
    <path d="M40.71 106.899s6.031 13.391 7.472 16.09c1.44 2.7 3.114 10.383 3.317 14.945.204 4.561 0 5.504-1.033 5.398-1.033-.105-1.455-5.813-1.455-6.748v-1.448s-.52 5.391-1.35 6.432c-.83 1.04-1.975 2.179-2.073 1.561-.098-.619.203-1.667.618-3.22.25-1.194.322-2.419.211-3.634 0 0-.626 2.903-2.073 3.943-1.448 1.041-3.016 1.455-2.496.626.52-.829 1.87-1.764 2.179-2.805.214-.953.32-1.926.317-2.903 0 0-1.976 3.212-2.805 3.732-.83.521-.83-.618-.31-1.138.52-.52 1.66-4.049 1.66-4.049s-.317-.211-1.765-3.423-2.262-8.83-2.7-11.009c-.437-2.179-1.243-5.082-1.243-5.082l-7.993-13.391s-.625-3.22 2.383-3.77c3.008-.55 9.138 9.893 9.138 9.893z" fill="#BB9388"/>
    <path d="M48.212 126.932s1.04 5.09.935 7.367c-.106 2.277.414 3.43-.317 3.43s-.927-.52-1.659-2.804a26.798 26.798 0 0 1-.935-5.188s-2.593 0-3.528-3.845" fill="#fff"/>
    <path opacity=".15" d="M48.212 126.932s1.04 5.09.935 7.367c-.106 2.277.414 3.43-.317 3.43s-.927-.52-1.659-2.804a26.798 26.798 0 0 1-.935-5.188s-2.593 0-3.528-3.845" fill="#000"/>
    <path d="M48.212 126.932s1.04 5.09.935 7.367c-.106 2.277.414 3.43-.317 3.43s-.927-.52-1.659-2.804a26.798 26.798 0 0 1-.935-5.188s-2.593 0-3.528-3.845" fill="#D6AEA4"/>
    <path d="M1.879 157.605H40.09c.189-7.148 1.44-53.836 1.817-55.925.415-2.262 2.466-23.6 2.67-32.007.203-8.407-3.491-20.524-3.491-21.346 0-.822-.611-5.949-6.357-10.262-5.745-4.313-10.261-4.305-11.49-3.694 0 0-4.524 3.084-11.703 10.676-7.178 7.593-9.643 13.746-9.643 25.44.005 7.078.623 14.142 1.847 21.112 0 0-2.262 36.524-2.262 37.346 0 .822.332 23.781.4 28.66z" fill="#fff" stroke="#38347D" stroke-width="1.346" stroke-linecap="round" stroke-linejoin="round"/>
    <path d="M19.22 75.042a22.634 22.634 0 0 0 2.428-.135c8.792-.958 16.438-9.945 21.482-17.712a121.795 121.795 0 0 0-.701-3.19c-4.758 7.76-12.449 17.72-21.022 18.655-11.936 1.297-17.342-8.106-18.85-11.144a37.727 37.727 0 0 0-.475 3.672c2.67 4.041 8.06 9.854 17.139 9.854zM16.355 56.901l2.187.58A47.245 47.245 0 0 1 31.36 35.933c-.73-.385-1.486-.72-2.262-1.002A49.009 49.009 0 0 0 16.356 56.9z" fill="#38347D"/>
    <path d="M18.504 67.72c.513-.263 11.197-5.828 22.477-20.358a12.205 12.205 0 0 0-.83-2.646C28.797 59.796 17.6 65.632 17.48 65.692l1.025 2.028zM7.352 59.54l2.262-.34c0-.06-.655-5.406 4.607-16.882-.844.837-1.726 1.742-2.661 2.73a47.233 47.233 0 0 0-1.697 1.885c-3.084 8.37-2.54 12.38-2.51 12.607zM26.006 93.055c-12.998 1.69-19.604-1.04-22.56-3.137.174 1.101.295 1.712.295 1.712s0 .4-.068 1.124c2.895 1.59 7.54 3.099 14.65 3.099a61.965 61.965 0 0 0 7.977-.551 42.625 42.625 0 0 0 16.898-5.972c.09-.95.173-1.922.256-2.91a40.271 40.271 0 0 1-17.448 6.635zM25.336 106.974c5.975-1.52 11.664-4 16.844-7.344.09-.814.196-1.81.317-2.948a55.722 55.722 0 0 1-17.704 8.09c-8.754 2.149-17.252-.249-21.738-1.975-.045.754-.098 1.568-.143 2.382a42.605 42.605 0 0 0 14.537 2.722 33.415 33.415 0 0 0 7.887-.927zM1.901 121.752c-.052.814-.098 1.583-.135 2.262a78.436 78.436 0 0 0 17.794 2.164 57.994 57.994 0 0 0 21.564-3.906c0-.829.053-1.659.076-2.465-15.14 6.371-31.336 3.883-39.299 1.945zM26.987 114.288a46.363 46.363 0 0 1-24.588-.754c-.046.792-.098 1.576-.144 2.353a45.422 45.422 0 0 0 13.572 1.983 52.191 52.191 0 0 0 11.695-1.342 57.947 57.947 0 0 0 13.964-5.203c0-.935.068-1.825.098-2.654a55.666 55.666 0 0 1-14.597 5.617zM20.653 82.446c-9.274.468-15.268-2.955-18.593-5.775.052 1.04.12 2.05.196 3.016a28.072 28.072 0 0 0 16.686 5.067c.595 0 1.206 0 1.824-.046 9.101-.46 17.154-4.44 23.66-11.498.076-1.32.129-2.526.152-3.529v-.15c-5.316 6.597-13.03 12.357-23.925 12.915z" fill="#38347D"/>
    <path d="M36.057 39.167c-.414-.37-.844-.754-1.327-1.1-5.745-4.306-10.262-4.306-11.49-3.696a62.88 62.88 0 0 0-6.787 5.746 6.212 6.212 0 0 0 1.237 5.338c3.898 4.924 16.588 23.804 19.905 19.702 3.318-4.101 2.459-15.389-1.236-25.244-.09-.256-.211-.505-.302-.746z" fill="#38347D" stroke="#38347D" stroke-width="1.346" stroke-linecap="round" stroke-linejoin="round"/>
    <path d="M24.084 60.845s11.084 23.6 13.338 27.294a29.71 29.71 0 0 0 3.491 4.924s9.802 3.295 18.21 6.379c8.407 3.084 23.02 7.133 26.088 7.985 3.069.852 8.203.822 9.048.822.844 0 10.669 2.262 11.31 2.669.641.407-.204 1.229-1.644 1.644-1.44.414-6.153.814-8.415 1.636-2.261.822-4.101.618-7.381-.204a33.927 33.927 0 0 1-7.39-3.28s-26.925-1.877-33.28-2.631c-6.357-.754-13.573-1.644-16.416-4.924a191.744 191.744 0 0 1-15.758-20.403c-3.86-5.836-10.926-14.032-8.249-21.459" fill="#fff"/>
    <path d="M24.084 60.845s11.084 23.6 13.338 27.294a29.71 29.71 0 0 0 3.491 4.924s9.802 3.295 18.21 6.379c8.407 3.084 23.02 7.133 26.088 7.985 3.069.852 8.203.822 9.048.822.844 0 10.669 2.262 11.31 2.669.641.407-.204 1.229-1.644 1.644-1.44.414-6.153.814-8.415 1.636-2.261.822-4.101.618-7.381-.204a33.927 33.927 0 0 1-7.39-3.28s-26.925-1.877-33.28-2.631c-6.357-.754-13.573-1.644-16.416-4.924a191.744 191.744 0 0 1-15.758-20.403c-3.86-5.836-10.926-14.032-8.249-21.459" stroke="#38347D" stroke-width="1.346" stroke-linecap="round" stroke-linejoin="round"/>
    <path d="M94.206 108.248c-.822 0-5.95 0-9.048-.822-3.1-.822-17.712-4.909-26.119-7.985-8.407-3.076-18.209-6.379-18.209-6.379a29.71 29.71 0 0 1-3.491-4.923c-.927-1.508-3.355-6.432-5.896-11.672-8.181 2.141-12.298 6.032-14.326 9.048a197.393 197.393 0 0 0 13.866 17.613c2.872 3.28 10.05 4.102 16.414 4.924 6.364.822 33.244 2.669 33.244 2.669a33.927 33.927 0 0 0 7.39 3.28c3.28.822 5.127 1.025 7.381.203 2.254-.821 6.982-1.229 8.415-1.636 1.432-.407 2.262-1.236 1.643-1.643-.618-.408-10.412-2.677-11.264-2.677z" fill="#D19280" fill-opacity=".75"/>
    <path opacity=".15" d="M94.206 108.248c-.822 0-5.95 0-9.048-.822-3.1-.822-17.712-4.909-26.119-7.985-8.407-3.076-18.209-6.379-18.209-6.379a29.71 29.71 0 0 1-3.491-4.923c-.927-1.508-3.355-6.432-5.896-11.672-8.181 2.141-12.298 6.032-14.326 9.048a197.393 197.393 0 0 0 13.866 17.613c2.872 3.28 10.05 4.102 16.414 4.924 6.364.822 33.244 2.669 33.244 2.669a33.927 33.927 0 0 0 7.39 3.28c3.28.822 5.127 1.025 7.381.203 2.254-.821 6.982-1.229 8.415-1.636 1.432-.407 2.262-1.236 1.643-1.643-.618-.408-10.412-2.677-11.264-2.677z" fill="#000"/>
    <path d="M94.206 108.248c-.822 0-5.95 0-9.048-.822-3.1-.822-17.712-4.909-26.119-7.985-8.407-3.076-18.209-6.379-18.209-6.379a29.71 29.71 0 0 1-3.491-4.923c-.927-1.508-3.355-6.432-5.896-11.672-8.181 2.141-12.298 6.032-14.326 9.048a197.393 197.393 0 0 0 13.866 17.613c2.872 3.28 10.05 4.102 16.414 4.924 6.364.822 33.244 2.669 33.244 2.669a33.927 33.927 0 0 0 7.39 3.28c3.28.822 5.127 1.025 7.381.203 2.254-.821 6.982-1.229 8.415-1.636 1.432-.407 2.262-1.236 1.643-1.643-.618-.408-10.412-2.677-11.264-2.677z" stroke="#38347D" stroke-width="1.346" stroke-linecap="round" stroke-linejoin="round"/>
    <path d="M40.091 157.605c.09-3.559.453-17.003.837-29.829a64.075 64.075 0 0 1-16.942 4.072c-12.064 1.41-19.016-1.508-22.454-3.77 0 .505-.046.822-.046.89 0 .754.325 23.751.392 28.652l38.213-.015z" fill="#38347D" stroke="#38347D" stroke-width="1.346" stroke-linecap="round" stroke-linejoin="round"/>
    <path d="M30.478 155.893c-1.87-7.095 2.654-16.143-3.876-20.84M30.477 139.57l8.4-8.068M9.418 139.622 9.2 155.893M9.494 133.764l-.038 2.97" stroke="#fff" stroke-width="1.346" stroke-linecap="round" stroke-linejoin="round"/>
    <path d="M43.16 1.286a15.585 15.585 0 0 1 8.385 5.594 14.424 14.424 0 0 1 2.812 6.228c1.003 6.108-2.435 7.993-1.327 10.767 1.108 2.775 2.217 4.215 1.327 5.55-.89 1.334-3.657 1.553-4.102 1.666-.444.113-1.334 5.21-3.106 7.435-1.772 2.224-7.992-.332-7.992-.332s-2.549 4.328-3.326 5.768c-.776 1.44.754 10.096-.339 13.98-1.093 3.882-3.657-.333-8.543-6.432-4.886-6.1-7.102-11.1-6.876-12.766.226-1.666 4.102-5.55 4.773-6.99.67-1.44.995-2.11.663-3.438-.332-1.326-4.215-6.785-4.215-13.76 0-6.974 5.542-13.647 12.871-14.205 3.03-.2 6.071.117 8.995.935z" fill="#fff"/>
    <path opacity=".15" d="M43.16 1.286a15.585 15.585 0 0 1 8.385 5.594 14.424 14.424 0 0 1 2.812 6.228c1.003 6.108-2.435 7.993-1.327 10.767 1.108 2.775 2.217 4.215 1.327 5.55-.89 1.334-3.657 1.553-4.102 1.666-.444.113-1.334 5.21-3.106 7.435-1.772 2.224-7.992-.332-7.992-.332s-2.549 4.328-3.326 5.768c-.776 1.44.754 10.096-.339 13.98-1.093 3.882-3.657-.333-8.543-6.432-4.886-6.1-7.102-11.1-6.876-12.766.226-1.666 4.102-5.55 4.773-6.99.67-1.44.995-2.11.663-3.438-.332-1.326-4.215-6.785-4.215-13.76 0-6.974 5.542-13.647 12.871-14.205 3.03-.2 6.071.117 8.995.935z" fill="#000"/>
    <path d="M43.16 1.286a15.585 15.585 0 0 1 8.385 5.594 14.424 14.424 0 0 1 2.812 6.228c1.003 6.108-2.435 7.993-1.327 10.767 1.108 2.775 2.217 4.215 1.327 5.55-.89 1.334-3.657 1.553-4.102 1.666-.444.113-1.334 5.21-3.106 7.435-1.772 2.224-7.992-.332-7.992-.332s-2.549 4.328-3.326 5.768c-.776 1.44.754 10.096-.339 13.98-1.093 3.882-3.657-.333-8.543-6.432-4.886-6.1-7.102-11.1-6.876-12.766.226-1.666 4.102-5.55 4.773-6.99.67-1.44.995-2.11.663-3.438-.332-1.326-4.215-6.785-4.215-13.76 0-6.974 5.542-13.647 12.871-14.205 3.03-.2 6.071.117 8.995.935z" fill="#CE7A63" fill-opacity=".75"/>
    <path d="M44.487 6.345c2.67-1.312 4.562-1.274 5.798-.905a15.758 15.758 0 0 0-7.125-4.154A26.865 26.865 0 0 0 34.165.35c-7.33.558-12.871 7.215-12.871 14.205s3.883 12.426 4.215 13.76c.119.44.147.9.083 1.35 5.278 1.048 7.004-1.59 7.004-1.59a4.524 4.524 0 0 1-3.438-.996c-1.56-1.335-1.56-6.44.332-8.77 1.893-2.329 3.77.89 3.77 2.776 0 1.885.89 3.438 1.78 3.22.89-.22.663-2.33.995-3.665.331-1.335 4.215-3.325 5.104-4.434.89-1.108-.445-2.11-1.885-3.77-1.44-1.659-.21-3.43 5.233-6.092z" fill="#38347D"/>
    <path d="M32.378 28.422s0 3.114 1.892 5.104M49.66 22.805a6.032 6.032 0 0 0-2.979-.445M51.296 20.128s-1.637-2.827-4.766-.595M47.458 32.63a3.016 3.016 0 0 1-3.13-2.081" stroke="#38347D" stroke-width="1.346" stroke-linecap="round" stroke-linejoin="round"/>
    <path d="m25.931 64.826-1.417-3.016c-9.116.158-14.454 3.558-17.47 6.786.325 1.073.733 2.119 1.22 3.129 2.376-3.084 7.466-7.118 17.667-6.9zM29.09 71.453l-1.417-2.97c-8.467.452-14.16 3.573-17.651 6.439a59.888 59.888 0 0 0 1.659 2.57c3.22-2.714 8.822-5.88 17.41-6.039zM127.239 91.6c.95 2.842 1.583 12.953 1.583 18.33 0 4.478-2.865 37.051-3.815 47.675h42.842c.513-10.368 2.043-41.523 2.043-45.466 0-4.743-1.583-24.173.476-30.967 2.058-6.794 4.418-24.64.754-30.16-3.665-5.52-17.342-8.686-21.482-10.111-4.139-1.425-10.269-2.21-13.27-.754 0 0-8.211 4.584-13.271 9.32-5.059 4.734-7.261 12.01-6.318 17.854.942 5.844 9.508 21.436 10.458 24.279z" fill="#38347D"/>
    <path d="M164.464 46.035a58.06 58.06 0 0 0-5.663-2.262 124.615 124.615 0 0 1-32.068 46.613c.234.52.408.942.506 1.229a31.94 31.94 0 0 1 .919 5.64 129.091 129.091 0 0 0 36.306-51.22zM172.818 66.613c.37-3.766.3-7.561-.211-11.31-8.799 14.861-24.015 37.526-43.8 55.268-.053 1.561-.249 4.607-.543 8.467 19.257-15.939 34.488-36.546 44.554-52.425z" fill="#FEFEFE"/>
    <path d="M167.849 157.605c.362-7.382 1.244-25.289 1.719-36.426-20.848 3.989-35.506.196-41.326-1.847-.89 11.74-2.557 30.65-3.235 38.273h42.842z" fill="#FC0"/>
    <path d="M141.768 58.952c5.722 0 10.36-4.487 10.36-10.021 0-5.534-4.638-10.02-10.36-10.02-5.721 0-10.36 4.486-10.36 10.02s4.639 10.02 10.36 10.02z" fill="#38347D"/>
    <path d="M132.298 36.31s1.734 6.16 1.734 9.801c0 3.642 3.951 12.011 10.428 8.219 6.477-3.793 3.159-12.479 2.051-15.17a44.44 44.44 0 0 1-1.893-6.32s-2.058 3.77-6.032 3.952a23.228 23.228 0 0 1-6.288-.483z" fill="#CE7A63" fill-opacity=".9"/>
    <path d="M121.614 13.945s-1.094 2.722.271 4.901l3.235 5.165-.272-11.966s-2.691-2.179-3.234 1.9z" fill="#38347D"/>
    <path d="M125.12 21.29s-2.179.82-1.094 4.35c1.086 3.528 2.722 2.45 2.722 2.45l-1.628-6.8z" fill="#38347D"/>
    <path d="M123.129 15.145s1.9 9.802 3.016 14.688c1.116 4.886 7.111 9.319 10.27 10.269 3.159.95 7.268-2.526 8.218-4.577.95-2.05 1.418-6.635 1.418-6.635s3.476-1.425 3.77-5.06c.294-3.634-.633-4.734-2.526-5.21l-1.425-.633s.792-5.843-1.259-9.478c-2.051-3.634-9.32 1.109-13.112 2.21-3.793 1.1-8.845.791-8.37 4.426z" fill="#CE7A63" fill-opacity=".9"/>
    <path d="M132.298 22.255s-.754 5.685.309 6.16c1.063.475 3.159-.633 3.634-.792M135.299 31.929s4.418.633 6.16-4.426M126.922 20.988a3.491 3.491 0 0 1 3.317-1.576M134.507 18.62s3.16-1.583 5.052.158" stroke="#38347D" stroke-width="1.346" stroke-linecap="round" stroke-linejoin="round"/>
    <path d="M129.865 25.09c.431-.075.658-.834.509-1.696-.15-.861-.621-1.499-1.052-1.424-.43.075-.658.834-.508 1.696.149.861.62 1.499 1.051 1.424zM136.818 23.672c.431-.075.659-.834.509-1.696-.15-.861-.621-1.499-1.051-1.424-.431.075-.659.834-.509 1.695.149.862.62 1.5 1.051 1.425zM141.142 10.876a62.676 62.676 0 0 1-13.112 4.464c-6.952 1.418-10.111-.158-9.802-3.634.309-3.476 9.32-11.061 17.531-11.061 8.211 0 11.061 3.77 11.536 7.743a67.962 67.962 0 0 1 0 10.27l-1.425 2.05s.362-1.598-1.9-2.88c-2.262-1.282-3.936-3.634-2.828-6.952zM185.108 22.171c1.546 1.184-.271 6.13 4.826 10.096 11.732 9.124 18.518 15.3 19.769 28.856 1.373 14.778-6.567 20.524-4.101 25.447 2.465 4.924 5.745 10.67.543 15.081-5.203 4.41-13.678 8.211-20.788-2.187-7.11-10.398-10.948-33.38-13.957-45.994-3.008-12.614-7.932-18.601-7.118-24.075.8-5.278 5.105-9.048 10.255-9.96a13.204 13.204 0 0 1 10.571 2.736z" fill="#38347D"/>
    <path d="m170.978 74.703-21.926 16.038s-35.114 12.546-37.18 13.187c-2.066.641-11.913 2.383-13.98 3.491-2.065 1.109-6.031 8.422-6.672 10.172a1.288 1.288 0 0 0 1.75 1.749c.474-.483 5.081-4.931 6.514-5.09 1.432-.158 2.699-.316 2.699-.316s-3.657 3.182-3.815 4.132c-.158.95.64.633 1.59.158.951-.475 4.608-1.749 6.033-4.29 1.425-2.541 2.699-3.974 5.082-4.924 2.382-.95 33.477-7.691 39.042-8.641 5.564-.95 25.583-12.976 26.541-13.134.957-.159-2.654-12.532-5.678-12.532z" fill="#FFB573" fill-opacity=".9"/>
    <path d="M166.695 95.212c.196.588-.392 8.859-.791 23.238-.302 11.031-2.918 30.635-4.125 39.155h41.915c.302-8.641.679-28.403-1.749-36.599-3.152-10.631-6.696-12.818-7.872-17.523-1.176-4.705-2.956-30.726-5.911-40.573-2.956-9.847-11.815-15.758-13.195-17.922-1.38-2.164-5.716-14.771-5.716-14.771l-7.479 6.303s5.512 8.86 6.303 11.62c.792 2.759-5.323 9.251-8.467 15.954-3.144 6.703-3.77 12.011-.988 16.143 2.782 4.132 7.879 14.379 8.075 14.975z" fill="#38347D"/>
    <path d="m173.104 135.68 6.869 1.508 6.869-1.508 6.869 1.508 6.869-1.508 3.182.693-.068-1.553-3.114-.686-6.869 1.508-6.869-1.508-6.869 1.508-6.869-1.508-6.861 1.508-1.651-.362c-.053.505-.106 1.003-.166 1.508l1.817.4 6.861-1.508zM180.69 84.075l-6.869 1.508-6.869-1.508-5.369 1.176.754 1.38 4.623-1.01 6.868 1.508 6.869-1.508 6.869 1.508 4.343-.958c-.06-.497-.113-1.003-.173-1.508l-4.17.92-6.876-1.508zM173.104 147.162l6.869 1.508 6.869-1.508 6.869 1.508 6.869-1.508 3.325.754v-1.508l-3.332-.754-6.869 1.508-6.869-1.508-6.869 1.508-6.869-1.508-6.862 1.508-2.97-.656c-.061.513-.129 1.011-.189 1.508l3.159.694 6.869-1.546zM203.845 152.086l-3.265-.716-6.869 1.508-6.869-1.508-6.869 1.508-6.869-1.508-6.861 1.508-3.702-.814c-.068.513-.136 1.018-.196 1.508l3.898.852 6.861-1.508 6.869 1.508 6.869-1.508 6.869 1.508 6.869-1.508 3.235.716c.007-.505.022-1.018.03-1.546zM157.595 69.35l2.488.543 6.869-1.508 6.869 1.508 6.869-1.508 6.869 1.508 2.058-.453-.271-1.508-1.787.392-6.869-1.508-6.869 1.508-6.869-1.508-6.869 1.508-2.036-.445c-.166.508-.317.998-.452 1.47zM180.69 72.585l-6.869 1.508-6.869-1.508-6.869 1.508-3.197-.701c-.03.514-.03 1.03 0 1.545l3.197.702 6.869-1.508 6.869 1.508 6.869-1.508 6.869 1.508 2.94-.649c-.075-.505-.143-1.003-.218-1.508l-2.722.596-6.869-1.493zM180.69 78.33l-6.869 1.508-6.869-1.508-6.869 1.508-1.96-.43c.15.28.316.558.497.83a28 28 0 0 1 .611.957l.852.189 6.869-1.508 6.869 1.508 6.869-1.508 6.869 1.508 3.679-.807c-.06-.505-.128-1.003-.188-1.508l-3.491.754-6.869-1.493zM173.105 141.425l6.868 1.508 6.869-1.508 6.869 1.508 6.869-1.508 3.318.754v-1.546l-3.295-.754-6.869 1.508-6.869-1.508-6.869 1.508-6.869-1.508-6.861 1.508-2.262-.505-.181 1.508 2.465.543 6.817-1.508z" fill="#FEFEFE"/>
    <path d="M166.695 95.212c.196.588-.392 8.859-.791 23.238-.302 11.031-2.918 30.635-4.125 39.155h41.915c.302-8.641.679-28.403-1.749-36.599-3.152-10.631-6.696-12.818-7.872-17.523-1.176-4.705-2.956-30.726-5.911-40.573-2.956-9.847-11.815-15.758-13.195-17.922-1.38-2.164-5.716-14.771-5.716-14.771l-7.479 6.303s5.512 8.86 6.303 11.62c.792 2.759-5.323 9.251-8.467 15.954-3.144 6.703-3.77 12.011-.988 16.143 2.782 4.132 7.879 14.379 8.075 14.975z" stroke="#38347D" stroke-width="1.346" stroke-linecap="round" stroke-linejoin="round"/>
    <path d="M184.874 115.185s-12.682 15.502-18.322 27.898M171.348 127.875s-5.361 9.862-6.786 16.06" stroke="#fff" stroke-width="1.346" stroke-linecap="round" stroke-linejoin="round"/>
    <path d="M164.185 62.563c4.094-2.262 9.319-12.064 11.596-13.873l1.554-1.244a17.433 17.433 0 0 1-2.368-2.458c-1.38-2.164-5.715-14.771-5.715-14.771l-7.48 6.303s5.512 8.86 6.303 11.62c.694 2.435-3.988 7.796-7.261 13.624.385 1.078 1.29 1.953 3.371.8z" fill="#FFB573" fill-opacity=".9"/>
    <path d="M155.167 15.054a16.303 16.303 0 0 0-1.282 6.545c.136 1.99.565 3.566-.234 5.534-.467 1.131-2.051 2.571-1.832 3.876.196 1.176 3.152 1.576 3.152 1.576s2.955 9.251 4.524 9.447c1.568.196 5.119-.754 9.643-4.524 4.524-3.77-.98-17.342-4.923-20.878-3.944-3.536-7.08-3.943-9.048-1.576z" fill="#FFB573" fill-opacity=".9"/>
    <path d="M156.509 27.396c.283 0 .513-.648.513-1.447 0-.8-.23-1.448-.513-1.448-.283 0-.513.648-.513 1.448 0 .8.23 1.447.513 1.447z" fill="#38347D"/>
    <path d="M155.144 22.624s.513-2.051 2.564-.513M156.169 34.568s1.365.346 2.903-1.508" stroke="#38347D" stroke-width="1.346" stroke-linecap="round" stroke-linejoin="round"/>
    <path d="M159.502 4.61s-7.291.204-8.475 4.924c-1.184 4.72 4.14 8.867 7.879 10.835 3.74 1.968 7.088 5.12 7.088 8.467 0 3.348.204 7.292 2.956 10.835 2.752 3.544 9.048 6.5 13.986 6.304 4.939-.196-.392-11.785 2.36-20.08 2.753-8.293-.754-16.542-6.303-20.086-5.549-3.544-19.491-1.199-19.491-1.199z" fill="#38347D"/>
    <path d="M204.019 76.12a16.768 16.768 0 0 1-.483 3.061M157.828 16.849c1.357 2.262 3.928 4.674 8.762 6.032 10.556 3.016 14.574 10.307 14.574 16.588 0 6.28.506 10.804 10.556 15.834a22.363 22.363 0 0 1 11.816 15.08M156.283 11.82c.002.437.045.874.128 1.304" stroke="#fff" stroke-width="1.346" stroke-linecap="round" stroke-linejoin="round"/>
    <path d="M170.36 11.82s12.569 6.288 12.313 14.83c-.257 8.543.505 16.589 8.294 21.361 7.788 4.773 15.834 7.797 18.601 17.342" stroke="#fff" stroke-width="1.346" stroke-linecap="round" stroke-linejoin="round"/>
    <path d="M177.372 57.565s-3.34 1.266-5.082 7.781c-1.742 6.514 5.399 17.953 6.515 23.042 1.116 5.09 2.224 12.863 2.224 12.863s-24.95 20.358-28.599 23.518c-3.65 3.159-5.565 5.24-5.565 5.24s-9.048 7.947-9.847 9.538c-.799 1.591-3.016 9.847-2.224 10.164.791.317 2.224-3.174 2.224-3.808 0-.633 1.583-4.132 1.583-4.132s-1.266 8.083-1.266 8.536c0 .452 1.266 0 1.425-.641.158-.641 1.907-7.307 1.907-7.307s-.95 7.465-.316 8.294c.633.83 1.749-4.765 1.749-4.765l1.267-4.448s-.317 7.781.324 8.098c.641.316 2.066-7.623 2.066-7.623s2.858-5.723 3.966-7.631a12.898 12.898 0 0 0 1.432-3.333s14.779-8.105 23.993-12.554c9.214-4.448 17.002-12.712 17.953-14.137.95-1.425-1.116-21.451-2.7-30.032-1.583-8.58-4.923-18.925-13.029-16.663z" fill="#FFB573" fill-opacity=".9"/>
    <path d="M125.753 47.325s-5.685 3.868-10.231 7.54c-4.547 3.672-3.868 10.918-3.868 12.51 0 1.59-.227 8.866-.227 8.866l-3.415 7.276s-5.225 4.78-6.364 5.92c-1.138 1.138-7.728 14.091-7.728 14.091l-1.591 2.262 8.663 1.116a74.657 74.657 0 0 1 10.684-9.802c5.663-4.102 10.428-15.412 10.662-16.806a79.669 79.669 0 0 0 2.028-11.597" fill="#38347D"/>
    <path d="M122.858 77.87c-3.823-6.274-9.048-5.46-11.37-4.675-.053 1.659-.091 3.016-.091 3.016l-3.415 7.276s-5.226 4.78-6.364 5.919c-1.139 1.138-7.729 14.092-7.729 14.092l-1.59 2.262 8.693 1.146a74.559 74.559 0 0 1 10.684-9.802c5.663-4.102 10.428-15.412 10.662-16.807.083-.46.294-1.304.52-2.427z" fill="#CE7A63" fill-opacity=".9"/>
    <path d="M97.161 100.543s-5.647 4.614-6.786 6.077c-1.138 1.463-2.028 10.066-1.576 10.692.453.626 3.612 2.307 4.97.837 1.356-1.47 6.325-8.558 6.325-8.558s-3.77 5.097-1.078 4.81c2.692-.286 4.238-4.433 5.821-6.318 1.583-1.885 1.357-2.096 0-4.818l-1.35-2.722" fill="#CE7A63"/>
    <path d="M88.807 117.304s2.873-9.802 4.019-10.556M90.157 118.02s3.332-9.214 5.052-11.122M91.944 118.676s3.611-9.048 5.98-11.242" stroke="#38347D" stroke-width="1.346" stroke-linecap="round" stroke-linejoin="round"/>
    <path d="M100.095 109.591s1.922-1.704 2.216-2.73l-2.216 2.73z" fill="#fff"/>
    <path d="M100.095 109.591s1.922-1.704 2.216-2.73" stroke="#38347D" stroke-width="1.346" stroke-linecap="round" stroke-linejoin="round"/>
</svg>
