<svg xmlns="http://www.w3.org/2000/svg" width="169" height="150" viewBox="0 0 169 150">
    <g fill="none" fill-rule="evenodd">
        <g fill-rule="nonzero">
            <g transform="translate(-87 -128) translate(87 128)">
                <path fill="#3F3D56" d="M106.85 87.724L83.65 60.124 37.081 60.549 8.831 88.065 9.402 88.432 9.198 88.432 9.198 145.665 106.787 145.665 106.787 88.432z"/>
                <path fill="#FC0" d="M83.674 60.182L54.691 94.162 54.691 145.665 106.787 145.665 106.787 87.698z"/>
                <path fill="#FFF" d="M75.603 117.183H86.24199999999999V126.587H75.603zM75.603 100.906H86.24199999999999V110.161H75.603zM28.32 114.688H38.959V124.092H28.32zM28.32 98.41H38.959V107.66499999999999H28.32z"/>
                <path fill="#3F3D56" d="M0 145.486H168.1V146.486H0z"/>
                <path fill="#A0616A" d="M142.784 137.166L143.584 141.166 139.584 141.966 140.184 136.966zM155.384 136.366L154.384 141.366 149.584 141.366 151.584 135.366z"/>
                <path fill="#2F2E41" d="M159.784 101.566l.8 5.4-1 11.8-.8 4.4-3.4 14.4s-3.8 0-4.4-1.6l1-8.2s.8-6.6.6-7.4c-.2-.8-3.2-13.6-3.2-13.6s-4.4 20.2-5 22c-.6 1.8-1.4 9.6-1.4 9.6s-3.4.6-3.6 0c-.2-.6-.4-14.8-.4-17 0-2.2.4-3.4.4-3.8 0-.4-1.576-19.494-1.576-19.494l21.976 3.494zM151.584 140.366s1 .2 1.6 0c.6-.2 0-1.4 0-1.4h2.2s2.4 5.4 3.4 5.8c1 .4 4.2 4.8.4 4.8-2.345-.03-4.633-.723-6.6-2 0 0-.4-1.8-2.2-2-1.8-.2-3-2.4-3-2.4l2.6-4.8s.6 2.2 1.6 2zM142.184 140.166s-.4.8-.8.4-.8-1.4-.8-1.4-1.2-.6-1.4 0c-.2.6-1 3.8-1.4 4.2-.4.4-4.6 4.6-.4 5.4 4.2.8 5-1 5-1s-.6-1 .6-1.4c1.2-.4 1.4-1.8 1.4-1.8l-.8-6s-.8 2-1.4 1.6z"/>
                <path fill="#A0616A" d="M164.384 87.566l.6 10.4s2.8 6.6-1 6.4c-3.8-.2-1.4-6.6-1.4-6.6l-3.72-9.282 5.52-.918zM133.584 84.566l-.6 10.4s-2.8 6.6 1 6.4c3.8-.2 1.4-6.6 1.4-6.6l3.72-9.282-5.52-.918z"/>
                <circle cx="149.584" cy="56.766" r="5.2" fill="#A0616A"/>
                <path fill="#A0616A" d="M153.684 58.866s-1.4 5.6 1.4 7c2.8 1.4-8.8 3.4-9.6 0l.4-1.6s1.6-2 1.2-3.8l6.6-1.6z"/>
                <path fill="#E6E6E6" d="M150.584 65.966s-3.451.323-4.526-1.939c0 0-8.074.54-9.874 7.94l3 19.2s-3.2 5.6-2.8 6.2c0 0-2 5.6 16.4 5.8l8-.4c.108-1.138.04-2.284-.2-3.4-.4-1.8-2.6-14.4-2.6-14.4s6-9.4 5.4-10.8c-.6-1.4-1.561-6.92-9.28-9.16 0 0-.12 1.16-3.52.96z"/>
                <path fill="#E6E6E6" d="M160.784 70.766l2.6 3.4s2.6 14.2 1.8 14.4c-.8.2-5.6 1.8-6.4 1.2-.8-.6-4.4-12.4-4.4-12.4l6.4-6.6zM139.584 69.766l-3.4 2.2s-5 14-3.6 14.6c1.4.6 9.2.2 9.2.2l-2.2-17z"/>
                <path fill="#2F2E41" d="M155.268 52.113s-1.801-3.903-5.254-3.002c-3.452.9-5.403 2.251-5.553 3.602-.15 1.35.075 3.377.075 3.377s.375-2.777 2.777-2.176c1.277.32 2.937.341 4.21.292.505-.02.996.167 1.358.519.362.352.563.838.556 1.343l-.063 4.298s5-3.2 1.894-8.253z"/>
                <path fill="#E6E6E6" d="M130.742 55.626H60.105c-.722 0-1.307-.586-1.308-1.308V21.884c0-.722.586-1.308 1.308-1.308h70.637c.722 0 1.307.586 1.308 1.308v32.434c0 .722-.586 1.307-1.308 1.308zM60.105 21.099c-.433 0-.785.351-.785.785v32.434c0 .433.352.784.785.785h70.637c.433 0 .785-.352.785-.785V21.884c0-.434-.352-.785-.785-.785H60.105z"/>
                <circle cx="70.557" cy="32.065" r="5.328" fill="#FC0"/>
                <path fill="#E6E6E6" d="M82.863 28.513c-.317 0-.61.169-.77.444-.159.275-.159.614 0 .888.16.275.453.445.77.444h41.867c.49 0 .888-.397.888-.888 0-.49-.398-.888-.888-.888H82.863zM82.863 33.841c-.317 0-.61.17-.77.444-.159.275-.159.614 0 .889.16.275.453.444.77.444h18.016c.317 0 .611-.17.77-.444.159-.275.159-.614 0-.889s-.453-.444-.77-.444H82.863zM66.47 42.36c-.675 0-1.225.399-1.225.888 0 .49.55.888 1.225.888h57.763c.676 0 1.225-.398 1.225-.888s-.55-.888-1.225-.888H66.47zM66.47 47.689c-.675 0-1.225.398-1.225.888s.55.888 1.225.888h57.763c.676 0 1.225-.399 1.225-.888 0-.49-.55-.888-1.225-.888H66.47z"/>
                <circle cx="118.02" cy="9.476" r="9.476" fill="#FC0"/>
                <path fill="#FC0" d="M118.02 24.882L115.057 19.749 112.094 14.617 118.02 14.617 123.946 14.617 120.983 19.749z"/>
                <circle cx="118.096" cy="9.417" r="3.4" fill="#FFF"/>
                <circle cx="153.774" cy="56.766" r="1" fill="#A0616A"/>
            </g>
        </g>
    </g>
</svg>
