<svg width="280" height="280" viewBox="0 0 280 280" fill="none" xmlns="http://www.w3.org/2000/svg">
    <path d="M251.944 223.393h-18.548v.14h18.548v-.14zM185.483 224.915h-4.866v.14h4.866v-.14zM232.837 218.195H222.09v.14h10.747v-.14zM62.098 219.137h-3.545v.14h3.545v-.14z" fill="#EBEBEB"/>
    <path d="M58.38 102.051c-8.495.028-32.323 3.92-32.323-10.51 0-12.276 11.648-11.369 11.648-11.369s-.336-10.64 10.035-12.045c10.64-1.45 12.247 10.035 12.247 10.035s18.48-7.314 15.68 11.043c0 0 10.237-2.038 10.237 6.222-.017 9.234-19.264 6.602-27.524 6.624zM154.039 111.773c-5.359 0-20.401 2.481-20.401-6.636 0-7.745 7.353-7.18 7.353-7.18s-.213-6.72 6.334-7.598c6.72-.919 7.728 6.333 7.728 6.333s11.659-4.614 9.884 6.972c0 0 6.462-1.288 6.462 3.92 0 5.836-12.163 4.172-17.36 4.189zM227.769 97.454c-6.121 0-23.285 2.828-23.285-7.571 0-8.843 8.4-8.193 8.4-8.193s-.252-7.655 7.196-8.652c7.666-1.042 8.825 7.23 8.825 7.23s13.3-5.27 11.279 7.957c0 0 7.375-1.473 7.375 4.48.022 6.653-13.86 4.732-19.79 4.749z" fill="#FDF6E3"/>
    <path d="M229.634 173.872s-.656-6.233 2.52-5.931c3.175.303-2.52 5.931-2.52 5.931zM165.469 178.911s-4.592-1.68-2.52-3.724c2.072-2.044 2.52 3.724 2.52 3.724zM174.065 173.872s-.655-6.233 2.52-5.931c3.175.303-2.52 5.931-2.52 5.931z" fill="#E0E0E0"/>
    <path d="M169.484 182.876s-5.863-2.655-5.566.157c.296 2.811 5.566-.157 5.566-.157z" fill="#EBEBEB"/>
    <path d="m206.892 216.844.56 7.319a.826.826 0 0 1-.398.773 29.128 29.128 0 0 1-2.66 1.467 33.696 33.696 0 0 1-3.298.929.827.827 0 0 0-.387 1.393.838.838 0 0 0 .588.243h10.831a.834.834 0 0 0 .834-.807l.325-11.116a.834.834 0 0 0-.79-.851l-4.737-.241a.83.83 0 0 0-.868.891z" fill="#4E4C6F"/>
    <path d="M212.464 217.689h-4.452a1.845 1.845 0 0 1-1.848-1.865s0-16.649.386-30.66c.655-22.546 5.729-43.624 5.729-43.624h11.62s.028 17.92-6.491 41.395a13.243 13.243 0 0 0-.487 3.59c0 4.278-.7 15.803-2.632 29.579a1.835 1.835 0 0 1-1.825 1.585z" fill="#38347D"/>
    <path opacity=".2" d="M220.875 151.1a66.669 66.669 0 0 0-2.391 27.787 187.592 187.592 0 0 0 4.188-21.907l-1.797-5.88z" fill="#000"/>
    <path d="m225.938 216.843.56 7.319a.839.839 0 0 1-.398.773 28.989 28.989 0 0 1-2.666 1.467 33.694 33.694 0 0 1-3.298.958.826.826 0 0 0-.392 1.393.835.835 0 0 0 .588.242h10.847a.826.826 0 0 0 .829-.806l.325-11.116a.828.828 0 0 0-.79-.851l-4.732-.241a.817.817 0 0 0-.628.237.83.83 0 0 0-.245.625z" fill="#4E4C6F"/>
    <path d="M217.476 140.225s3.113 34.871 4.272 46.48c.74 7.397 3.187 29.562 3.187 29.562a2.24 2.24 0 0 0 2.24 1.982h3.707a2.24 2.24 0 0 0 2.268-2.184c.207-5.7.05-20.899-.7-31.04-.56-7.717 1.092-20.44 1.378-30.8.285-10.36-3.36-13.3-3.36-13.3l-12.992-.7z" fill="#38347D"/>
    <path d="M227.651 104.664c-.56-.095-1.12-.174-1.607-.235a1.162 1.162 0 0 1-.829-.51c-1.227-1.915-1.12-5.662-.891-7.84l-4.334 4.424c.398 1.204.638 2.464.05 3.455a.93.93 0 0 1-.66.426 9.235 9.235 0 0 0-1.776.398l-.705 1.254s-.403 1.921-.403 1.999c0 .079 1.842 2.274 1.842 2.274l4.542.375s11.536-4.844 4.771-6.02z" fill="#FFB573"/>
    <path opacity=".2" d="m222.549 97.894-2.581 2.615c.155.436.275.883.358 1.338 1.031-.246 2.537-1.321 2.554-2.43a4.556 4.556 0 0 0-.331-1.523z" fill="#000"/>
    <path d="M227.141 92.165c-1.053 4.01-1.405 5.729-3.864 7.403-3.696 2.526-8.4.364-8.562-3.875-.157-3.814 1.579-9.727 5.869-10.561a5.655 5.655 0 0 1 6.557 7.033z" fill="#FFB573"/>
    <path d="M227.466 95.558a3.002 3.002 0 0 1-1.775 1.479c-1.019.308-1.546-.594-1.282-1.568.235-.868 1.052-2.084 2.083-1.966a1.374 1.374 0 0 1 1.159 1.551 1.34 1.34 0 0 1-.185.504z" fill="#FFB573"/>
    <path d="M217.918 92.114a8.95 8.95 0 0 1-1.596 1.876 1.435 1.435 0 0 0 1.12.46l.476-2.336zM221.698 90.67a.183.183 0 0 0 .084 0 .154.154 0 0 0 .077-.1.14.14 0 0 0 .003-.064.163.163 0 0 0-.024-.06 1.928 1.928 0 0 0-1.489-.964.173.173 0 0 0-.168.163.169.169 0 0 0 .156.168 1.6 1.6 0 0 1 1.221.806.171.171 0 0 0 .14.05zM215.6 89.427a.191.191 0 0 0 .084-.028 1.626 1.626 0 0 1 1.456-.095.163.163 0 0 0 .224-.067.175.175 0 0 0-.073-.224 1.956 1.956 0 0 0-1.77.1.17.17 0 0 0-.073.224.17.17 0 0 0 .152.09zM220.354 92.025c-.062.33-.291.56-.51.52-.218-.038-.336-.34-.268-.671.067-.33.291-.56.504-.521.212.04.341.342.274.672zM216.619 91.28c-.062.33-.291.56-.504.52-.213-.038-.336-.34-.274-.671.061-.33.291-.56.504-.521.212.04.341.353.274.672z" fill="#38347D"/>
    <path d="m216.44 90.653-.751-.38s.286.7.751.38zM220.175 91.387l-.75-.381s.285.7.75.38zM220.125 87.024s.924 1.876 2.637 2.403c1.714.526 1.557 4.776 2.666 5.04.957.213 3.332-1.63 2.24-5.326a3.497 3.497 0 0 0-2.548-2.369l-4.57-1.12-.425 1.372z" fill="#38347D"/>
    <path opacity=".2" d="M220.125 87.024s.924 1.876 2.637 2.403c1.714.526 1.557 4.776 2.666 5.04.957.213 3.332-1.63 2.24-5.326a3.497 3.497 0 0 0-2.548-2.369l-4.57-1.12-.425 1.372z" fill="#38347D"/>
    <path d="M226.632 86.677a.56.56 0 0 1-.628.8c-1.299-.363-3.572-.733-5.432.354-2.38 1.388-5.437-1.781-6.826.487a.212.212 0 0 1-.386-.157c.386-2.01 1.752-4.995 6.44-4.62 4.446.353 6.171 1.988 6.832 3.136zM216.955 95.592a20.915 20.915 0 0 1 3.965-.162c-.353.874-1.008 1.568-2.504 1.54a1.36 1.36 0 0 1-1.461-1.378z" fill="#38347D"/>
    <path d="M219.122 96.28a2.73 2.73 0 0 0-1.641.398c.276.183.599.28.93.28a2.698 2.698 0 0 0 1.635-.397 1.51 1.51 0 0 0-.924-.28z" fill="#FF1249" fill-opacity=".6"/>
    <path d="M217.089 95.57a.615.615 0 0 0 .448.442c.866.015 1.732-.043 2.588-.174a.85.85 0 0 0 .666-.42 24.035 24.035 0 0 0-3.702.151z" fill="#fff"/>
    <path d="M226.8 96.426a3.503 3.503 0 0 1-.292.208.661.661 0 0 1 0 .66.36.36 0 0 1-.369.199.36.36 0 0 1-.14-.047c-.359-.224-.269-.958.185-.992.235 0 .235-.38 0-.364a.923.923 0 0 0-.764.714.917.917 0 0 0 .4.966.71.71 0 0 0 .935-.179 1.028 1.028 0 0 0 .05-1.12l-.005-.045z" fill="#38347D"/>
    <path d="M233.055 107.325c-1.361-2.145-3.853-2.8-6.339-3.008-.073 1.708-1.899 3.08-4.144 3.08-2.246 0-4.016-1.327-4.144-2.996-3.36.398-6.894 1.68-7.661 5.64-1.199 6.244.621 32.732.621 32.732H232.4s.212-8.451.828-17.232c.532-7.543 1.652-15.332-.173-18.216z" fill="#FEFEFE"/>
    <path opacity=".8" d="M233.055 107.325c-1.361-2.145-3.853-2.8-6.339-3.008-.073 1.708-1.899 3.08-4.144 3.08-2.246 0-4.016-1.327-4.144-2.996-3.36.398-6.894 1.68-7.661 5.64-1.199 6.244.621 32.732.621 32.732H232.4s.212-8.451.828-17.232c.532-7.543 1.652-15.332-.173-18.216z" fill="#fff"/>
    <path d="m191.52 124.382-3.444.705c-.193.04-.394.025-.579-.044a1.05 1.05 0 0 1-.468-.342l-1.221-1.574a1.032 1.032 0 0 0-.493-.352l-1.613-.56a1.06 1.06 0 0 0-1.209.392l-.997 1.411a1.055 1.055 0 0 0 .201 1.433l2.924 2.364c.189.151.424.234.666.235h2.122l5.343-.487-1.232-3.181z" fill="#FFB573"/>
    <path d="M213.511 105.952s-4.721 2.458-10.281 14.353l-14.146 4.211.655 3.982s13.25-1.249 16.24-2.649c2.991-1.4 8.759-15.742 8.759-15.742s.302-5.292-1.227-4.155z" fill="#FC0"/>
    <path d="m190.193 123.553.677 5.415-1.349.022-.711-5.068 1.383-.369z" fill="#263238"/>
    <path opacity=".7" d="m190.193 123.553.677 5.415-1.349.022-.711-5.068 1.383-.369z" fill="#38347D"/>
    <path opacity=".2" d="M214.413 110.88c-.107-.397-.387-.526-.902-.274-2.906 1.434-4.53 9.201-5.096 12.477 2.391-3.713 5.085-9.996 5.998-12.203z" fill="#000"/>
    <path d="M217.644 104.513c-3.108.492-6.16 1.853-6.877 5.527-1.199 6.244.621 32.732.621 32.732h7.012l-.756-38.259zM227.634 104.418s-2.24 12.729-2.8 20.692c-.487 6.63-1.355 17.662-1.355 17.662h8.921s.213-8.45.829-17.231c.532-7.543 1.652-15.333-.174-18.217-1.215-1.881-3.259-2.604-5.421-2.906z" fill="#FC0"/>
    <path d="m216.737 123.357-2.531.599-2.548-.515-.068-4.267 5.08-.084.067 4.267zM232.893 123.497l-2.56.482-2.52-.639.135-4.267 5.079.163-.134 4.261z" fill="#38347D"/>
    <path opacity=".3" d="m216.737 123.357-2.531.599-2.548-.515-.068-4.267 5.08-.084.067 4.267z" fill="#38347D"/>
    <path opacity=".7" d="m216.737 130.614.739 1.025-4.777 3.92-1.109-.935 5.147-4.01zM225.982 130.614l-.733 1.025 4.776 3.36 1.109-.935-5.152-3.45z" fill="#38347D"/>
    <path d="M217.644 104.513c-.701.108-1.392.271-2.067.487l-2.066 8.562 2.71-.369 1.619 1.12-.196-9.8z" fill="#263238"/>
    <path d="m227.136 114.386 1.999-1.204 2.145.499-1.619-8.837a12.385 12.385 0 0 0-2.004-.443l-.521 9.985z" fill="#38347D"/>
    <path opacity=".7" d="M217.644 104.513c-.701.108-1.392.271-2.067.487l-2.066 8.562 2.71-.369 1.619 1.12-.196-9.8zM226.088 114.241l1.882-1.059 2.52 1.21-1.254-9.671a11.645 11.645 0 0 0-1.602-.32s-.784 4.514-1.546 9.84z" fill="#38347D"/>
    <path d="m229.146 134.143-3.259 1.937-3.517.622a1.676 1.676 0 0 0-1.159.801l-.661 1.092a1.68 1.68 0 0 0 .37 2.189l.56.454a1.68 1.68 0 0 0 2.055.089l1.411-.968c.089-.06.183-.113.28-.157l1.395-.611c.301-.133.558-.351.739-.627l.364-.56 3.427-1.797-2.005-2.464z" fill="#FFB573"/>
    <path d="M231.582 105.796s3.702 1.68 6.967 9.363c3.265 7.683 5.32 13.401 2.52 15.45-2.8 2.05-10.64 7.28-10.64 7.28l-2.52-3.684 8.702-7.516-4.385-8.915s-2.475-12.628-.644-11.978z" fill="#FC0"/>
    <path d="m228.088 133.331 3.046 4.76-1.17.773-2.946-4.721 1.07-.812z" fill="#263238"/>
    <path opacity=".7" d="m228.088 133.331 3.046 4.76-1.17.773-2.946-4.721 1.07-.812z" fill="#38347D"/>
    <path d="m216.938 119.7-2.788.605-2.812-.515-.022-1.35 5.6-.089.022 1.349z" fill="#263238"/>
    <path d="m233.268 119.857-2.817.47-2.783-.649.045-1.35 5.594.179-.039 1.35z" fill="#38347D"/>
    <path opacity=".7" d="m216.938 119.7-2.788.605-2.812-.515-.022-1.35 5.6-.089.022 1.349z" fill="#38347D"/>
    <path opacity=".2" d="M233.951 116.217a162.457 162.457 0 0 1-.33 4.441l1.573 3.192a17.952 17.952 0 0 0-1.243-7.633z" fill="#000"/>
    <path d="m67.62 216.463.885 8.355h4.39v-8.355H67.62z" fill="#CE7A63"/>
    <path d="M73.327 224.258a.126.126 0 0 1-.058-.032.125.125 0 0 1-.032-.058.099.099 0 0 1 .006-.064.105.105 0 0 1 .044-.048c.068-.039 1.647-.957 2.408-.756.14.036.26.124.337.247a.402.402 0 0 1 0 .47c-.387.277-.86.405-1.333.359a8.3 8.3 0 0 1-1.372-.118zm.347-.146c.845.096 1.988.079 2.195-.218.034-.039.062-.106 0-.235a.314.314 0 0 0-.213-.151.6.6 0 0 0-.207 0 4.91 4.91 0 0 0-1.775.604z" fill="#38347D"/>
    <path d="M73.265 224.252a.108.108 0 0 1-.045-.095c0-.062.112-1.283.689-1.764a.78.78 0 0 1 .277-.158c.102-.033.21-.044.316-.033.297 0 .392.174.404.297.1.51-.98 1.507-1.518 1.753h-.028a.13.13 0 0 1-.095 0zm1.17-1.848a.56.56 0 0 0-.37.14 2.556 2.556 0 0 0-.593 1.4c.56-.342 1.271-1.12 1.238-1.422 0-.028 0-.107-.213-.124l-.062.006z" fill="#38347D"/>
    <path d="m72.856 223.625-4.956.044a.4.4 0 0 0-.387.314l-.873 4.043a.662.662 0 0 0 .504.79h.14c1.786-.045 3.36-.163 5.6-.179 2.626 0 1.96.296 5.04.313 1.86 0 2.178-2.105 1.389-2.206-3.612-.42-3.999-1.507-5.399-2.8a1.61 1.61 0 0 0-1.058-.319z" fill="#4E4C6F"/>
    <path opacity=".2" d="M72.895 220.64v-2.24h-5.068l.235 2.24h4.833z" fill="#000"/>
    <path d="M69.065 135.447s5.902 31.254 6.53 41.815c.604 10.209-1.49 40.88-1.49 40.88h-7.656s-1.825-21.688-.806-38.824a5.843 5.843 0 0 0-.174-1.843c-1.187-4.698-6.63-26.432-7.795-35.28v-6.748h11.39z" fill="#FC0"/>
    <path d="m65.453 216.838.28 2.24h9.05l.28-2.24h-9.61z" fill="#38347D"/>
    <path opacity=".3" d="m65.453 216.838.28 2.24h9.05l.28-2.24h-9.61z" fill="#38347D"/>
    <path opacity=".4" d="M58.307 146.121c.986 5.454 2.682 12.914 4.2 19.292.286-14.846-2.475-24.08-2.475-24.08l-1.725 4.788z" fill="#25252A"/>
    <path d="m48.714 216.463.376 8.355h4.384l.516-8.355h-5.276z" fill="#CE7A63"/>
    <path d="M54.124 224.258a.103.103 0 0 1-.056-.031.11.11 0 0 1-.028-.059.1.1 0 0 1 .007-.064.105.105 0 0 1 .044-.048c.067-.039 1.646-.957 2.402-.756a.56.56 0 0 1 .342.247.402.402 0 0 1 0 .47 1.952 1.952 0 0 1-1.328.359 8.328 8.328 0 0 1-1.383-.118zm.347-.146c.846.096 1.994.079 2.201-.218 0-.039.056-.106 0-.235a.313.313 0 0 0-.212-.151.6.6 0 0 0-.208 0 4.94 4.94 0 0 0-1.78.604z" fill="#38347D"/>
    <path d="M54.068 224.252a.11.11 0 0 1-.05-.095c0-.061.117-1.282.694-1.764a.777.777 0 0 1 .594-.19c.296 0 .392.173.403.297.1.509-.98 1.506-1.523 1.752h-.045a.113.113 0 0 1-.073 0zm1.17-1.848a.562.562 0 0 0-.375.14 2.588 2.588 0 0 0-.56 1.4c.56-.341 1.271-1.12 1.238-1.422 0-.028 0-.106-.213-.123l-.09.005z" fill="#38347D"/>
    <path d="m53.654 223.625-4.956.045a.4.4 0 0 0-.387.313l-.857 4.044a.657.657 0 0 0 .267.686.663.663 0 0 0 .237.103.547.547 0 0 0 .14 0c1.787-.045 3.36-.162 5.6-.179 2.627 0 1.96.297 5.04.314 1.865 0 2.184-2.106 1.395-2.207-3.612-.42-3.999-1.506-5.404-2.8a1.603 1.603 0 0 0-1.075-.319z" fill="#4E4C6F"/>
    <path opacity=".2" d="m53.732 220.64.14-2.24h-5.068l.101 2.24h4.827z" fill="#000"/>
    <path d="M61.04 136.198s-.733 31.662-1.517 42.184c-.734 9.929-4.48 39.576-4.48 39.576h-7.678s-.392-26.438 1.82-38.388a8.716 8.716 0 0 0 .04-2.879c-.852-5.678-3.568-26.253-.695-41.244l12.51.751z" fill="#FC0"/>
    <path d="m46.43 216.838.28 2.24h9.055l.28-2.24H46.43z" fill="#38347D"/>
    <path opacity=".3" d="m46.43 216.838.28 2.24h9.055l.28-2.24H46.43z" fill="#38347D"/>
    <path d="m33 114.347-5.52-3.36s.47-6.267-1.26-6.827c-1.731-.56-3.86.269-4.257 2.397-.397 2.128 3.327 6.317 3.327 6.317l4.788 5.286L33 114.347z" fill="#CE7A63"/>
    <path d="M51.234 98.42s-4.43-.073-6.81 3.568c-2.38 3.64-5.32 14-5.32 14l-7.7-3.36-3.36 4.726s7.84 7.174 13.16 6.054 11.75-25.2 10.03-24.988z" fill="#38347D"/>
    <path opacity=".8" d="M51.234 98.42s-4.43-.073-6.81 3.568c-2.38 3.64-5.32 14-5.32 14l-7.7-3.36-3.36 4.726s7.84 7.174 13.16 6.054 11.75-25.2 10.03-24.988z" fill="#38347D"/>
    <path opacity=".1" d="m49.18 109.435-.723-1.965h-2.369l-1.08 11.978a55.666 55.666 0 0 0 4.171-10.013z" fill="#3F3D55"/>
    <path d="m30.907 111.681-3.96 5.706 1.361 1.053 4.357-5.987-1.758-.772z" fill="#3F3D55"/>
    <path opacity=".5" d="m30.907 111.681-3.96 5.706 1.361 1.053 4.357-5.987-1.758-.772z" fill="#38347D"/>
    <path d="m90.009 110.32 6.434.656s3.422-5.281 5.124-4.66c1.703.622 2.907 2.548 1.938 4.48-.969 1.932-6.468 3.024-6.468 3.024l-7.011 1.311-.017-4.811z" fill="#CE7A63"/>
    <path d="M62.042 98.84s5.712 1.047 16.8 10.007l13.558 1.03v5.186s-9.33 2.184-15.12.319c-5.79-1.865-13.345-8.282-13.345-8.282s-3.965-8.932-1.893-8.26z" fill="#000" fill-opacity=".75"/>
    <path opacity=".8" d="M62.042 98.84s5.712 1.047 16.8 10.007l13.558 1.03v5.186s-9.33 2.184-15.12.319c-5.79-1.865-13.345-8.282-13.345-8.282s-3.965-8.932-1.893-8.26z" fill="#38347D"/>
    <path opacity=".1" d="m68.197 103.947-2.8 4.351a61.282 61.282 0 0 0 7.963 5.337l-5.163-9.688z" fill="#000"/>
    <path d="M91.79 109.385v6.322l1.444-.229v-6.093H91.79z" fill="#3F3D55"/>
    <path opacity=".5" d="M91.79 109.385v6.322l1.444-.229v-6.093H91.79z" fill="#3F3D55"/>
    <path d="M53.665 98.207c-2.861.14-8.96.42-7.84 7.28 1.12 6.86 1.96 32.2 1.96 32.2h21.84s1.12-19.32 0-29.68-11.278-10.007-15.96-9.8z" fill="#38347D"/>
    <path opacity=".8" d="M53.665 98.207c-2.861.14-8.96.42-7.84 7.28 1.12 6.86 1.96 32.2 1.96 32.2h21.84s1.12-19.32 0-29.68-11.278-10.007-15.96-9.8z" fill="#38347D"/>
    <path d="M62.16 79.666a1.501 1.501 0 0 1 1.899.42c.795 1.03-1.277 4.155-1.277 4.155l-.622-4.575z" fill="#BB7166"/>
    <path d="M61.712 98.75c-2.655-.632-3.327-2.351-3.13-4.16.046-.454.121-.905.224-1.35l-3.31-2.76-2.43-2c.655 2.94 1.394 8.014-.61 9.98 2.2 1.176 2.205.621 4.518 1.562a10.444 10.444 0 0 1 4.738-1.271z" fill="#CE7A63"/>
    <path opacity=".2" d="M53.44 90.412c.09.56.169 1.12.225 1.68.761 1.635 3.13 2.632 4.889 2.834v-.359c.047-.454.121-.905.224-1.35L57.12 91.84l-3.645-2.128c-.034.224-.029.448-.034.7z" fill="#000"/>
    <path d="M53.312 82.51c-.504 3.977-1.008 6.267.605 8.709a5.207 5.207 0 0 0 9.178-.823c1.512-3.36 2.044-9.28-1.467-11.654a5.293 5.293 0 0 0-8.316 3.769z" fill="#CE7A63"/>
    <path d="M59.058 84.935c-.062.325.062.616.263.661.202.045.426-.179.504-.504.078-.325-.056-.616-.263-.66-.207-.045-.442.184-.504.503zM62.782 85.646c-.056.32.061.616.268.655.208.04.426-.179.504-.504.079-.325-.061-.616-.269-.66-.207-.045-.442.184-.503.51zM61.326 85.602c.172.906.448 1.789.823 2.632a1.68 1.68 0 0 1-1.389 0l.566-2.632zM58.24 83.597a.19.19 0 0 1-.084-.033.184.184 0 0 1-.078-.191.185.185 0 0 1 .028-.067 1.85 1.85 0 0 1 1.512-.795.19.19 0 0 1 .173.201.196.196 0 0 1-.201.18 1.44 1.44 0 0 0-1.199.627.194.194 0 0 1-.151.078zM64.21 84.24a.212.212 0 0 1-.151-.095 1.557 1.557 0 0 0-1.12-.812.184.184 0 0 1-.174-.207.19.19 0 0 1 .202-.174A1.91 1.91 0 0 1 64.4 83.96a.185.185 0 0 1-.067.258.229.229 0 0 1-.123.022z" fill="#38347D"/>
    <path d="M54.387 84.05s1.25-.09 1.53-2.05c.28-1.96.733-1.68 1.68-1.746.945-.068 8.82 3.08 7.98-1.96-.84-5.04-3.114-.947-5.075-1.613-1.96-.666-5.532-1.82-7.14.526-1.607 2.347-.218 6.373-.37 7.807l.259-.963h1.136z" fill="#38347D"/>
    <path d="M51.123 85.86a4.234 4.234 0 0 0 1.55 2.424c1.009.745 1.77-.157 1.714-1.417-.05-1.12-.633-2.9-1.747-3.13-1.114-.23-1.792.907-1.517 2.122z" fill="#CE7A63"/>
    <path d="M53.25 84.05h1.12s-.783 5.091 1.283 5.04c2.066-.05 3.293-.828 5.533-.52 2.24.308 2.374.74 2.374.74s-.409 3.482-1.428 3.242a1.905 1.905 0 0 1-1.965.912 1.993 1.993 0 0 1-2.123.28 2.8 2.8 0 0 1-2.077-.386 1.939 1.939 0 0 1-1.596-1.086s-2.666-1.552-1.12-8.221z" fill="#38347D"/>
    <path opacity=".1" d="M53.25 84.05h1.12s-.783 5.091 1.283 5.04c2.066-.05 3.293-.828 5.533-.52 2.24.308 2.374.74 2.374.74s-.409 3.482-1.428 3.242a1.905 1.905 0 0 1-1.965.912 1.993 1.993 0 0 1-2.123.28 2.8 2.8 0 0 1-2.077-.386 1.939 1.939 0 0 1-1.596-1.086s-2.666-1.552-1.12-8.221z" fill="#38347D"/>
    <path d="M62.367 90.16a20.957 20.957 0 0 0-3.768-1.12c.123.93.56 1.758 2.021 2.106a1.35 1.35 0 0 0 1.714-.84.462.462 0 0 0 .033-.146z" fill="#263238"/>
    <path opacity=".5" d="M62.367 90.16a20.957 20.957 0 0 0-3.768-1.12c.123.93.56 1.758 2.021 2.106a1.35 1.35 0 0 0 1.714-.84.462.462 0 0 0 .033-.146z" fill="#3F3D55"/>
    <path d="M60.116 90.255c.563.099 1.08.375 1.473.79-.31.11-.646.124-.963.039a2.711 2.711 0 0 1-1.473-.795c.309-.115.647-.127.963-.034z" fill="#FF1249" fill-opacity=".6"/>
    <path d="M62.25 90.082a.611.611 0 0 1-.56.313 16.088 16.088 0 0 1-2.447-.817.834.834 0 0 1-.533-.56c1.206.261 2.39.617 3.54 1.064z" fill="#fff"/>
    <path d="m50.725 98.442 1.383-.532 4.945 1.736 4.279-1.461 1.343.817-2.962 2.845-2.576-1.574-2.643 1.82-3.769-3.65z" fill="#3F3D55"/>
    <path opacity=".5" d="m50.725 98.442 1.383-.532 4.945 1.736 4.279-1.461 1.343.817-2.962 2.845-2.576-1.574-2.643 1.82-3.769-3.65z" fill="#fff"/>
    <path d="M99.747 216.16h-4.575l-.65 8.12h4.76l1.4-8.12h-.935z" fill="#FFC3BD"/>
    <path d="m99.154 223.625-4.956.045a.395.395 0 0 0-.387.313l-.85 4.044a.659.659 0 0 0 .503.789h.14c1.787-.045 3.36-.162 5.6-.179 2.627 0 1.96.297 5.04.314 1.859 0 2.179-2.106 1.389-2.207-3.612-.42-3.998-1.506-5.398-2.8a1.614 1.614 0 0 0-1.081-.319z" fill="#4E4C6F"/>
    <path opacity=".2" d="M95.172 216.16h5.51l-.532 3.075-5.208-.202.23-2.873z" fill="#000"/>
    <path d="m124.388 215.32.655 8.496-4.76.464-1.495-8.209 5.6-.751z" fill="#FFC3BD"/>
    <path d="m125.004 223.625-4.956.045a.4.4 0 0 0-.387.313l-.857 4.044a.668.668 0 0 0 .267.686.669.669 0 0 0 .237.103.547.547 0 0 0 .14 0c1.787-.045 3.36-.162 5.6-.179 2.627 0 1.96.297 5.04.314 1.86 0 2.184-2.106 1.395-2.207-3.612-.42-3.999-1.506-5.404-2.8a1.602 1.602 0 0 0-1.075-.319z" fill="#4E4C6F"/>
    <path opacity=".2" d="m124.684 219.196-5.247.442-.649-3.567 5.6-.751.296 3.876z" fill="#000"/>
    <path d="m108.243 150.416 6.434 32.239s-.795 13.67 2.61 34.306a1.317 1.317 0 0 0 1.366 1.12l6.866-.426a1.308 1.308 0 0 0 1.232-1.366l-1.619-34.356-4.48-43.193-12.129.633-.28 11.043z" fill="#FC0"/>
    <path opacity=".4" d="m109.262 155.546 1.646 8.232 1.647 8.232c.56-6.608-.913-21.068-.913-21.068l-2.38 4.604z" fill="#3F3D55"/>
    <path d="m112.252 150.416-9.934 65.884c-.052.347-.23.661-.5.884-.269.224-.612.34-.962.326l-6.07-.263a1.42 1.42 0 0 1-1.36-1.445c.122-5.443.688-25.542 2.8-36.131 0 0-.191-26.091 3.169-40.953l12.88-.627-.023 12.325z" fill="#FC0"/>
    <path d="M112.639 82.696s-6.11-1.496-7.919 2.94c-1.808 4.435-.644 10.007-2.044 11.76-1.4 1.752-3.085 7.067 0 7.14 3.086.072 6.72-1.613 8.518-.7 1.798.912 5.555 1.68 6.72 1.047s-1.12-4.9-.532-6.72a50.092 50.092 0 0 0 1.445-7.661c.207-1.926 1.12-5.286-1.053-6.826s-5.135-.98-5.135-.98z" fill="#38347D"/>
    <path d="M117.079 102.962a10.216 10.216 0 0 0-3.018-.717 1.089 1.089 0 0 1-.778-.476 4.81 4.81 0 0 1-.37-3.579l-5.27-4.216c.471 2.038.975 5.387.376 7.677a.845.845 0 0 1-.74.622c-.694.061-1.12.112-1.12.112l-1.5 2.044.56 2.553 4.401 2.487 3.287.666 3.293-1.82s4.284-3.825.879-5.353z" fill="#FFC3BD"/>
    <path opacity=".2" d="m109.788 95.704 3.125 2.475a8.35 8.35 0 0 0-.168 1.495 4.15 4.15 0 0 1-3.147-2.29c-.314-.756-.101-1.58.19-1.68z" fill="#000"/>
    <path d="M106.512 90.127c.588 3.6.751 5.74 2.767 7.414 3.035 2.52 7.341.398 7.84-3.292.448-3.36-.56-8.67-4.279-9.75a4.976 4.976 0 0 0-6.125 3.132 4.983 4.983 0 0 0-.203 2.496z" fill="#FFC3BD"/>
    <path d="M114.397 90.502a10.517 10.517 0 0 0 1.68 2.38 1.742 1.742 0 0 1-1.389.409l-.291-2.789z" fill="#ED847E"/>
    <path d="M111.004 89.337a.252.252 0 0 1-.09 0 .185.185 0 0 1-.056-.24 1.753 1.753 0 0 1 1.338-.858.173.173 0 0 1 .123.297.173.173 0 0 1-.123.05 1.403 1.403 0 0 0-1.052.695.179.179 0 0 1-.064.044.165.165 0 0 1-.076.012zM114.587 94.719c.162-.001.323-.016.482-.045a.078.078 0 0 0 .031-.01.073.073 0 0 0 .025-.023.084.084 0 0 0 .017-.063.084.084 0 0 0-.095-.067 2.306 2.306 0 0 1-1.988-.56.086.086 0 0 0-.027-.02.077.077 0 0 0-.064 0 .068.068 0 0 0-.027.02.088.088 0 0 0-.024.062c0 .023.008.045.024.062a2.39 2.39 0 0 0 1.646.644z" fill="#3F3D55"/>
    <path d="M116.2 86.335s1.002-3.08-2.173-3.432c-3.175-.353-5.975.352-6.888 1.713-.913 1.361-1.506 7.84-1.506 7.84h1.579l2.744-4.239 1.68-2.593 1.232-1.12 1.557-.213c.484.318.899.729 1.221 1.21l.554.834z" fill="#38347D"/>
    <path d="M105.084 93.689a3.513 3.513 0 0 0 2.302 1.305c1.21.134 1.624-.986 1.12-2.033-.442-.93-1.607-2.134-2.744-1.798a1.55 1.55 0 0 0-1.026 1.078 1.548 1.548 0 0 0 .348 1.448z" fill="#FFC3BD"/>
    <path d="M113.406 85.283s.918 2.682-.661 2.951c-1.579.269.106-1.758-.353-2.598-.459-.84-.655 3.36-1.781 3.45-1.125.089-2.8 1.26-3.36 7.75s-1.293 4.345-1.361 2.839c-.067-1.506.684-9.789 1.361-12 .678-2.213 5.987-4 5.987-4l1.915.611 1.792 1.91s.638 3.36-.56 2.509c-1.199-.852-1.367.15-2.979-3.422z" fill="#38347D"/>
    <path d="M114.061 90.849a1.397 1.397 0 0 1-1.736 1.277 1.391 1.391 0 0 1-1.036-1.15 1.394 1.394 0 0 1 1.451-1.593 1.403 1.403 0 0 1 1.321 1.466zM117.499 90.72a1.397 1.397 0 0 1-1.736 1.277 1.391 1.391 0 0 1-1.036-1.15 1.394 1.394 0 0 1 1.451-1.593 1.4 1.4 0 0 1 1.321 1.466z" fill="#FF1249" fill-opacity=".35"/>
    <path d="M116.189 89.04a1.571 1.571 0 0 0-1.618 1.249l-.403.028a1.573 1.573 0 0 0-2.033-1.036 1.585 1.585 0 0 0-1.064 1.411v.028l-4.48.291v.364l4.48-.291a1.577 1.577 0 0 0 1.659 1.24 1.579 1.579 0 0 0 1.46-1.654h.297a1.57 1.57 0 0 0 .979 1.409 1.575 1.575 0 0 0 1.54-2.715 1.576 1.576 0 0 0-.839-.313l.022-.011zm1.12 1.64a1.202 1.202 0 0 1-.807 1.073 1.208 1.208 0 0 1-1.493-1.66 1.213 1.213 0 0 1 2.306.588h-.006zm-3.438.158a1.226 1.226 0 0 1-.398.842 1.207 1.207 0 0 1-.876.314 1.219 1.219 0 0 1-1.157-1.274 1.218 1.218 0 0 1 1.275-1.098 1.214 1.214 0 0 1 1.15 1.227l.006-.011z" fill="#3F3D55"/>
    <path d="m83.149 131.779-2.8 4.295s-5.264 1.322-4.631 4.212c.588 2.71 4.211 3.36 5.04 1.853.829-1.506 2.273-4.541 2.273-4.541l3.12-3.797-3.002-2.022z" fill="#FFC3BD"/>
    <path d="M104.267 102.967s-3.265.325-8.496 6.16c-5.23 5.836-6.826 13.513-6.826 13.513l-6.574 8.764a.996.996 0 0 0 .212 1.411l2.896 2.1a.985.985 0 0 0 .74.183.999.999 0 0 0 .654-.395l7.84-10.551L99.848 112s5.735-9.447 4.419-9.033z" fill="#38347D"/>
    <path opacity=".1" d="M98.196 112.415s-3.326 6.58-2.61 9.632l3.69-8.714-1.08-.918z" fill="#000"/>
    <path d="M80.047 136.08c1.226 0 2.34 1.12 2.923 2.207.33.61 1.26.067.93-.56-.75-1.395-2.168-2.722-3.853-2.739a.56.56 0 0 0 0 1.075v.017z" fill="#3F3D55"/>
    <path opacity=".5" d="M80.047 136.08c1.226 0 2.34 1.12 2.923 2.207.33.61 1.26.067.93-.56-.75-1.395-2.168-2.722-3.853-2.739a.56.56 0 0 0 0 1.075v.017z" fill="#fff"/>
    <path d="m138.449 129.36 3.589 3.26s5.141-.073 5.27 2.727c.118 2.626-3.035 4.11-4.178 2.929-.397-.415-.42-.975-.912-1.529-.7-.754-1.46-1.449-2.274-2.078l-3.78-2.721 2.285-2.588z" fill="#FFC3BD"/>
    <path d="M117.6 103.041s3.063.268 6.468 4.093c3.254 3.657 8.294 15.434 8.294 15.434l6.815 5.941a1.245 1.245 0 0 1 .224 1.613l-1.77 2.733a1.226 1.226 0 0 1-.845.549 1.242 1.242 0 0 1-.975-.258l-8.59-6.854-7.095-13.121s-5.035-11.032-2.526-10.13z" fill="#38347D"/>
    <path opacity=".1" d="m120.148 113.182 2.946 5.443c.453-1.826-1.518-9.302-1.518-9.302l-1.932 1.68-.089.835c.352.812.593 1.344.593 1.344z" fill="#000"/>
    <path d="M121.52 105.426c-.448-1.68-3.852-2.419-6.244-3.103-1.338 2.084-2.424 5.36-4.894 4.895-2.47-.465-3.36-3.293-3.64-5.04-3.679.56-7.583 2.329-8.445 8.013-1.153 7.577-.235 18.262 0 30.672h22.77s2.133-29.3.453-35.437z" fill="#38347D"/>
    <path d="M104.888 102.553a64.36 64.36 0 0 0 1.305 8.221c.42 1.842 1.266 6.72 3.881 6.966 2.615.246 3.864-4.385 4.48-6.087a64.36 64.36 0 0 0 2.369-8.703c.106-.526-.723-.739-.829-.212a69.224 69.224 0 0 1-1.417 5.734c-.504 1.742-1.971 8.4-4.48 8.4-2.509 0-3.326-6.72-3.629-8.355a67.502 67.502 0 0 1-.845-5.97c-.051-.56-.891-.526-.84 0l.005.006z" fill="#FEFEFE"/>
    <path opacity=".7" d="M104.888 102.553a64.36 64.36 0 0 0 1.305 8.221c.42 1.842 1.266 6.72 3.881 6.966 2.615.246 3.864-4.385 4.48-6.087a64.36 64.36 0 0 0 2.369-8.703c.106-.526-.723-.739-.829-.212a69.224 69.224 0 0 1-1.417 5.734c-.504 1.742-1.971 8.4-4.48 8.4-2.509 0-3.326-6.72-3.629-8.355a67.502 67.502 0 0 1-.845-5.97c-.051-.56-.891-.526-.84 0l.005.006z" fill="#FEFEFE"/>
    <path d="M176.4 171.359v7.773l3.69 45.304h4.525s1.305-35.784-.56-43.624l1.949-12.32-9.604 2.867z" fill="#CE7A63"/>
    <path d="M178.349 224.375a1.962 1.962 0 0 1-1.333-.359.41.41 0 0 1 0-.47.562.562 0 0 1 .342-.247c.761-.201 2.34.717 2.408.756a.1.1 0 0 1 .05.112.128.128 0 0 1-.032.058.128.128 0 0 1-.058.032 8.25 8.25 0 0 1-1.377.118zm-.711-.891a.66.66 0 0 0-.208 0 .318.318 0 0 0-.212.151c-.084.129-.056.196 0 .236.207.296 1.349.313 2.195.218a4.916 4.916 0 0 0-1.775-.605z" fill="#38347D"/>
    <path d="M179.721 224.257h-.045c-.56-.246-1.618-1.243-1.517-1.753 0-.123.106-.269.403-.297a.776.776 0 0 1 .593.191c.56.481.684 1.68.689 1.764a.11.11 0 0 1-.045.095.13.13 0 0 1-.078 0zm-1.081-1.854h-.061c-.191 0-.208.096-.213.124-.034.308.677 1.08 1.237 1.422a2.557 2.557 0 0 0-.593-1.4.56.56 0 0 0-.37-.14v-.006z" fill="#38347D"/>
    <path d="m180.208 223.624 4.956.045a.4.4 0 0 1 .386.314l.863 4.043a.667.667 0 0 1-.504.79h-.14c-1.787-.045-3.36-.163-5.6-.18-2.627 0-1.966.297-5.04.314-1.859 0-2.179-2.106-1.389-2.206 3.612-.42 3.998-1.507 5.398-2.8a1.614 1.614 0 0 1 1.07-.32z" fill="#4E4C6F"/>
    <path opacity=".1" d="M176.4 171.359v5.6a66.631 66.631 0 0 0 8.73-.728l.874-7.761-9.604 2.889z" fill="#000"/>
    <path d="m163.358 170.799-.958 6.871-3.763 46.783h4.883s7.017-35.185 5.975-43.809l3.36-9.856-9.497.011z" fill="#CE7A63"/>
    <path d="M156.8 224.375a1.962 1.962 0 0 1-1.333-.359.418.418 0 0 1 0-.47.562.562 0 0 1 .342-.247c.761-.201 2.341.717 2.408.756a.1.1 0 0 1 .05.112.12.12 0 0 1-.089.09 8.261 8.261 0 0 1-1.378.118zm-.711-.891a.653.653 0 0 0-.207 0 .315.315 0 0 0-.213.151c-.084.129-.056.196 0 .236.207.296 1.349.313 2.195.218a4.907 4.907 0 0 0-1.786-.605h.011z" fill="#38347D"/>
    <path d="M158.161 224.257h-.045c-.56-.246-1.618-1.243-1.517-1.753 0-.123.106-.269.403-.297a.776.776 0 0 1 .593.191c.56.481.683 1.68.689 1.764a.11.11 0 0 1-.045.095.13.13 0 0 1-.078 0zm-1.092-1.854h-.062c-.19 0-.207.096-.213.124-.033.308.678 1.08 1.238 1.422a2.557 2.557 0 0 0-.593-1.4.562.562 0 0 0-.37-.14v-.006z" fill="#38347D"/>
    <path d="m158.648 223.624 4.956.045a.4.4 0 0 1 .386.314l.863 4.043a.667.667 0 0 1-.504.79h-.14c-1.787-.045-3.36-.163-5.6-.18-2.627 0-1.966.297-5.04.314-1.859 0-2.179-2.106-1.389-2.206 3.612-.42 3.998-1.507 5.398-2.8a1.614 1.614 0 0 1 1.07-.32z" fill="#4E4C6F"/>
    <path opacity=".1" d="m163.268 171.444-.56 4.149a50.496 50.496 0 0 0 8.092 1.238l2.078-6.031h-9.112l-.498.644z" fill="#000"/>
    <path d="M172.094 108.007c-2.24 0-4.055 1.881-6.496 5.157a42.221 42.221 0 0 0-3.842 5.964c-.745 1.552-2.497 2.84-3.987 3.708-1.876 1.12-9.419 8.456-10.13 8.596-.891.173-1.68.274-2.285.33a3.424 3.424 0 0 0-1.747.678l-1.048.795a1.55 1.55 0 0 0 .23 2.335l2.005 1.417a1.55 1.55 0 0 0 2.077-.258l2.207-2.469 2.8-2.056 10.752-7.515a5.675 5.675 0 0 0 1.254-1.226l7.476-9.643s2.391-5.813.734-5.813z" fill="#CE7A63"/>
    <path d="M171.36 108.029s-4.48 6.16-3.735 27.07l-7.09 37.145s11.57 4.105 27.44.745c0 0 5.04-23.33-3.175-37.52l6.345-25.385s-7.465-3.735-19.785-2.055z" fill="#38347D"/>
    <path d="m213.517 133.839-2.33-1.254-2.755.403c-.504.09-4.441-3.993-8.361-7.073a6.745 6.745 0 0 1-2.2-3.13c-1.316-3.819-4.307-11.76-6.72-12.718 0 0-3.22 1.507-1.815 6.72l5.953 10.108c.167.294.379.561.627.79l10.355 7.308 2.66 1.938 2.94.716a1.23 1.23 0 0 0 1.265-.431l.751-1.501a1.246 1.246 0 0 0-.37-1.876z" fill="#CE7A63"/>
    <path d="M170.408 105.319s1.871-1.355 1.221-4.374c-.65-3.018-.801-3.87.599-6.95s2.341-9.833 8.781-5.213c0 0 4.34-.666 5.779 3.254s.14 4.104 1.014 7.935c.873 3.83-1.12 5.6-.314 7.218 0 0-2.66-.207-2.626-2.867 0 0-1.574 2.694-2.8 2.867-1.227.174-7.213-.101-5.673-2.8 0 0-1.68.667-.812 2.139 0 0-2.654-.084-1.68-2.352-.028-.016-1.708 1.664-3.489 1.143z" fill="#38347D"/>
    <path d="M182.084 99.97c-.302 2.347-.47 6.625 1.255 8.059a26.73 26.73 0 0 1-5.741 3.92c-2.716-1.96-1.461-3.427-1.461-3.427 2.537-.807 2.346-2.711 1.797-4.48l4.15-4.071z" fill="#CE7A63"/>
    <path opacity=".2" d="m180.382 101.646-2.47 2.408c.141.411.245.835.308 1.265.98-.213 2.408-1.193 2.442-2.24a4.109 4.109 0 0 0-.28-1.433z" fill="#000"/>
    <path d="M184.24 96.348c-1.058 3.74-1.422 5.348-3.763 6.876-3.517 2.302-7.879.185-7.963-3.796-.073-3.584 1.68-9.095 5.706-9.8a5.3 5.3 0 0 1 6.107 4.053c.199.882.169 1.8-.087 2.667z" fill="#CE7A63"/>
    <path d="M175.577 96.129a8.818 8.818 0 0 1-1.529 1.736 1.363 1.363 0 0 0 1.053.448l.476-2.184zM178.903 95.166a.188.188 0 0 0 .079 0 .15.15 0 0 0 .044-.039.153.153 0 0 0 .031-.112.158.158 0 0 0-.019-.056 1.81 1.81 0 0 0-1.378-.93.153.153 0 0 0-.129.033.155.155 0 0 0-.042.188c.009.02.024.04.042.054a.156.156 0 0 0 .129.033 1.494 1.494 0 0 1 1.12.779.166.166 0 0 0 .123.05zM173.286 93.822a.182.182 0 0 0 .079 0 1.489 1.489 0 0 1 1.366-.062.157.157 0 0 0 .213-.061.157.157 0 0 0 .011-.119.159.159 0 0 0-.073-.094 1.828 1.828 0 0 0-1.68.062.158.158 0 0 0-.081.088.151.151 0 0 0 .009.12.144.144 0 0 0 .14.083l.016-.017zM177.868 96.096c-.068.302-.286.52-.493.476-.207-.045-.308-.325-.241-.639.067-.313.286-.52.487-.476.202.045.308.303.247.639zM174.373 95.335c-.062.308-.28.52-.482.481-.201-.04-.313-.33-.246-.638s.286-.521.487-.482c.202.04.314.33.241.639z" fill="#3F3D55"/>
    <path d="m174.216 94.735-.695-.376s.258.661.695.376zM177.705 95.49l-.694-.375s.257.644.694.375z" fill="#3F3D55"/>
    <path d="m175.19 91.09 5.785 1.752.913 2.722.734 3.701 2.273-1.68 1.4-3.225-1.624-3.618s-3.483-1.473-3.589-1.473c-.107 0-2.94-.767-2.94-.767l-2.296.454-.656 2.133z" fill="#38347D"/>
    <path d="M184.475 99.54a2.803 2.803 0 0 1-1.68 1.355c-.957.269-1.439-.56-1.176-1.495.241-.812 1.031-1.938 1.994-1.809a1.286 1.286 0 0 1 1.058 1.479 1.262 1.262 0 0 1-.196.47z" fill="#CE7A63"/>
    <path d="M181.653 93.637s-1.439 1.501-5.119-.481c-3.679-1.983-5.079.14-5.28 2.301-.202 2.162-1.07 3.164-2.481 3.226-1.411.062 2.178-.722 1.708-4.004-.471-3.282 2.565-5.667 4.754-4.62 2.19 1.047 6.087.66 6.418 3.578z" fill="#38347D"/>
    <path d="M180.662 92.595s-.941 1.725 0 4.262c.941 2.537-1.227 1.865 0 4.088a2.376 2.376 0 0 1 .868-2.156s.218 1.646.985 1.613a3.45 3.45 0 0 1 .387-3.181c1.086-1.652 1.019-5.046-2.24-4.626z" fill="#38347D"/>
    <path d="M177.167 100.425c.173-.035.342-.088.504-.157a.083.083 0 0 0 .032-.02.09.09 0 0 0 .03-.066.078.078 0 0 0-.006-.037.092.092 0 0 0-.046-.054.086.086 0 0 0-.036-.008.07.07 0 0 0-.035.006 2.522 2.522 0 0 1-2.24-.118.096.096 0 0 0-.118-.02.094.094 0 0 0-.045.11.085.085 0 0 0 .021.037 2.61 2.61 0 0 0 1.939.327z" fill="#3F3D55"/>
    <path d="M184.386 108.141a41.037 41.037 0 0 0-8.21-.515c-.616.879-1.249 2.772.924 5.969a18.592 18.592 0 0 1 7.286-5.454z" fill="#CE7A63"/>
</svg>
