<svg xmlns="http://www.w3.org/2000/svg" width="234" height="147" viewBox="0 0 234 147">
    <g fill="none" fill-rule="evenodd">
        <g fill-rule="nonzero">
            <g transform="translate(-63 -126) translate(63 126)">
                <path fill="#FC0" d="M231.545 100.799c-2.338 5.622-7.23 10.7-12.48 15.51-4.616 4.228-9.553 8.314-14.812 12.258-1.457 1.094-2.938 2.175-4.442 3.243l-1.044.737c-.927.655-1.869 1.304-2.827 1.948l-.115.078c-.929.632-1.866 1.258-2.812 1.878-3.093 2.032-6.363 4.05-9.978 5.72-1.231.571-2.502 1.103-3.818 1.579-.711.259-1.438.5-2.18.727-1.215.369-2.463.691-3.766.956-.218.045-.437.088-.657.13-1.334.25-2.685.432-4.05.558-5.002.457-10.169.123-15.18-.661-2.503-.392-4.968-.897-7.354-1.472-.293-.07-.585-.142-.878-.205-8.122-2.032-15.748-4.791-23.928-6.73-2.819-.67-5.692-1.238-8.62-1.705-1.43-.227-2.866-.432-4.311-.615-3.401-.423-6.846-.706-10.304-.85-4.664-.205-9.48-.117-13.917.698-.591.108-1.175.23-1.751.365-.73.171-1.448.366-2.151.585-1.897.613-3.742 1.373-5.52 2.272-.35.173-.698.347-1.045.524-1.088.554-2.161 1.12-3.251 1.67-1.962 1.027-4.003 1.894-6.105 2.591-1.15.364-2.321.662-3.505.895-3.135.628-6.47.877-9.82.893-1.616 0-3.233-.035-4.832-.12h-.05c-.545-.028-1.093-.06-1.642-.102-2.496-.17-4.983-.433-7.434-.792-8.397-1.232-16.362-3.56-22.768-7.11-8.701-4.82-14.227-12.006-13.397-19.186.595-5.173 4.292-9.976 7.8-14.679 6.525-8.756 12.638-17.712 15.854-27.152 2.609-7.662 3.387-15.764 9.39-22.65 1.924-2.205 4.383-4.217 7.247-5.98 2.14-1.31 4.383-2.444 6.708-3.39 2.627-1.077 5.329-1.958 8.085-2.639 2.389-.592 4.81-1.047 7.25-1.363 1.326-.172 2.668-.305 4.019-.396 1.04-.072 2.085-.118 3.134-.137h.162c.642-.013 1.284-.013 1.926 0 4.68.072 9.346.51 13.958 1.311 2.886.483 5.747 1.074 8.549 1.725 1.672.387 3.33.793 4.971 1.217.501.13 1.002.26 1.497.394 11.683 3.13 21.963 7.453 33.22 11 .057.018.112.037.17.051 2.31.71 4.656 1.3 7.028 1.766 1.743.349 3.524.65 5.337.915 2.775.41 5.61.735 8.465 1.014l.63.062c4.19.41 8.416.716 12.521 1.073 1.458.127 2.903.259 4.327.41.903.091 1.798.187 2.685.288.636.074 1.275.148 1.913.226.638.078 1.314.16 1.97.244.428.053.852.109 1.28.168 2.586.343 5.166.727 7.717 1.166 1.552.267 3.096.555 4.62.864 1.105.225 2.2.462 3.285.71.805.183 1.602.374 2.393.575 6.427 1.616 12.441 3.734 17.624 6.593 13.46 7.408 19.482 19.595 15.01 30.347z" opacity=".1"/>
                <circle cx="51.108" cy="14.116" r="4.44" fill="#FC0" opacity=".1"/>
                <circle cx="141.857" cy="4.44" r="4.44" fill="#FC0" opacity=".1"/>
                <circle cx="195.667" cy="14.383" r="4.44" fill="#FC0" opacity=".1"/>
                <circle cx="7.441" cy="24.857" r="7.441" fill="#FC0" opacity=".1"/>
                <circle cx="14.574" cy="61.599" r="7.441" fill="#FC0" opacity=".1"/>
                <circle cx="214.278" cy="48.075" r="7.441" fill="#FC0" opacity=".1"/>
                <path fill="#BE6F72" d="M72.735 49.13c.037.624 0 1.251-.109 1.868-.41 1.907-2.147 3.216-3.828 4.21-1.681.993-3.528 1.933-4.528 3.61-1.205 2.026-.821 4.75.593 6.642 1.414 1.893 3.656 3.02 5.963 3.49 4.208.868 8.816-.351 11.971-3.266 3.155-2.915 4.737-7.47 3.964-11.7-1.712.24-3.237-1.27-3.792-2.908-.554-1.638-.439-3.414-.654-5.132-.016-.29-.104-.573-.255-.821-.24-.333-.665-.468-1.061-.577-1.979-.544-5.308-1.734-7.359-1.279-1.847.423-.936 4.31-.905 5.863z"/>
                <path fill="#000" d="M72.735 49.13c.037.624 0 1.251-.109 1.868-.41 1.907-2.147 3.216-3.828 4.21-1.681.993-3.528 1.933-4.528 3.61-1.205 2.026-.821 4.75.593 6.642 1.414 1.893 3.656 3.02 5.963 3.49 4.208.868 8.816-.351 11.971-3.266 3.155-2.915 4.737-7.47 3.964-11.7-1.712.24-3.237-1.27-3.792-2.908-.554-1.638-.439-3.414-.654-5.132-.016-.29-.104-.573-.255-.821-.24-.333-.665-.468-1.061-.577-1.979-.544-5.308-1.734-7.359-1.279-1.847.423-.936 4.31-.905 5.863z" opacity=".1"/>
                <path fill="#BE6F72" d="M70.344 140.002c-1.962 1.027-4.003 1.893-6.105 2.59-1.15.364-2.321.663-3.506.895-.084-1.578.002-3.16.257-4.72.16-.898.396-1.787.458-2.696.087-1.313-.194-2.623-.811-3.785 2.286-.312 4.458-.821 6.755-.671l.146.01c.273.007.543.058.8.15.354.17.654.435.869.763.118.162.227.33.326.503.649 1.121.895 2.414.946 3.746.024 1.074-.021 2.147-.135 3.215zM82.313 134.948c-.731.171-1.448.366-2.152.585-1.896.613-3.741 1.373-5.52 2.272-.115-.559-.171-1.128-.167-1.7 2.116-1.459 4.735-1.997 7.256-1.491.166.02.325.084.46.184.048.043.09.094.123.15z"/>
                <path fill="#3F3D56" d="M85.841 124.587c-.14 1.342-.345 2.688-.821 3.95-.515 1.356-1.353 2.67-1.246 4.116.047.628.26 1.31.292 1.932-.592.108-1.175.23-1.751.365-.731.171-1.448.366-2.152.585-1.896.613-3.741 1.373-5.52 2.273-.35.172-.697.346-1.044.523-.144-.019-.285-.041-.429-.068-1.026-.187-2.106-.646-2.687-1.467-.133-.19-.237-.397-.31-.616-.334-1 .015-2.246-.681-3.038l-.033.029-.025.016c-.38.345-.8.647-1.248.9-2.063 1.167-4.525 1.404-6.773.652-.44-.15-.866-.341-1.27-.57-.941-.537-1.848-1.438-1.774-2.513.04-.6.383-1.174.291-1.768-.068-.424-.347-.777-.556-1.153-1.373-2.463.265-5.63-.597-8.307-.021-.064-.044-.127-.066-.189-.064-.174-.136-.343-.205-.511-.177-.392-.374-.778-.53-1.18-.13-.339-.233-.687-.308-1.041-.194-1.03-.263-2.078-.205-3.124 0-2.757.492-5.58 1.194-8.235.126-.472.265-1.14.45-1.866.18-.766.423-1.516.727-2.242.41-.944.968-1.697 1.732-1.876 1.15-.269 2.907.3 4.072.44l4.609.55 9.214 1.102c1.59.19 3.262.41 4.573 1.305.086.06.17.122.255.187.346.273.657.589.923.94.095.121.185.249.271.378.3.458.554.943.76 1.45 1.143 2.746 1.17 5.81 1.178 8.784 0 3.104.01 6.206-.31 9.287z"/>
                <path fill="#000" d="M68.176 134.098c-.277-1.067-.862-2.613-.948-3.033-.29-1.412-.5-2.839-.628-4.274-.228-2.558-.639-6.158.264-8.59.848.451 1.593 1.73 1.985 2.603 1.42 3.163-.178 7.046 1.156 10.246.1.192.162.401.183.616-.023.273-.122.534-.284.755l-.45.748-1.278.93z" opacity=".1"/>
                <path fill="#BE6F72" d="M97.738 36.447c1.51-2.464 3.58-4.886 3.45-7.766-.047-1.026-.383-2.03-.64-3.035-.735-2.911-.784-5.953-.141-8.886 2.538-.408 5.136.174 7.258 1.625.67.464 1.307 1.041 1.603 1.803.273.702.228 1.484.178 2.235-.113 1.726-.267 3.567-1.33 4.926-.33.425-.737.784-1.059 1.213-.47.616-.745 1.367-1.014 2.1l-3.49 9.494c-1.76 4.784-3.67 9.789-7.549 13.1-.094.08-2.874-3.868-3.104-4.264-.93-1.623-.523-2.309.602-3.668 2.219-2.687 3.424-5.928 5.236-8.877z"/>
                <path fill="#FBBEBE" d="M57.749 117.363c-.012.709-.072 1.416-.179 2.117-.037.258-.08.515-.131.771-.7 3.654-2.443 7.13-3.662 10.688-1.607 4.699-2.313 8.775-2.874 13.441-1.615 0-3.233-.035-4.832-.119h-.049c-.546-.029-1.094-.062-1.642-.103.495-4.351-.41-8.916.474-13.272.357-1.753.967-3.455 1.334-5.2.114-.513.2-1.032.257-1.555.051-.497.078-1.012.302-1.46.02-.043.043-.085.07-.125.196-.31.44-.587.722-.82 2.501-2.194 5.56-3.653 8.839-4.215.466-.064.92-.117 1.37-.148z"/>
                <path fill="#000" d="M57.749 117.363c-.012.709-.072 1.416-.179 2.117-.037.258-.08.515-.131.771-.7 3.654-2.443 7.13-3.662 10.688-1.607 4.699-2.313 8.775-2.874 13.441-1.615 0-3.233-.035-4.832-.119h-.049c-.546-.029-1.094-.062-1.642-.103.495-4.351-.41-8.916.474-13.272.357-1.753.967-3.455 1.334-5.2.114-.513.2-1.032.257-1.555.051-.497.078-1.012.302-1.46.02-.043.043-.085.07-.125.196-.31.44-.587.722-.82 2.501-2.194 5.56-3.653 8.839-4.215.466-.064.92-.117 1.37-.148z" opacity=".1"/>
                <path fill="#FBBEBE" d="M47.342 126.717c-.033 1.14-.127 2.279-.281 3.41-.548 4.62-.651 9.442-1.027 14.132-.546-.029-1.094-.062-1.642-.103-2.496-.17-4.984-.433-7.434-.792.188-1.056.379-2.113.57-3.17.234-1.294.468-2.602.4-3.916-.063-1.242-.396-2.45-.66-3.668-.565-2.607-.881-5.419-1.81-7.878-.486-1.379-1.26-2.639-2.271-3.694 3.847-1.511 7.543-1.597 11.675-1.437.294-.017.585.055.838.205.196.17.341.39.42.636.621 1.494 1.011 3.073 1.156 4.684.05.53.072 1.06.066 1.591z"/>
                <circle cx="78.326" cy="40.065" r="8.005" fill="#BE6F72"/>
                <path fill="#E3E8F4" d="M79.991 58.775c1.026-1.75 1.925-3.937 3.9-4.423 1.115-.277 2.274.1 3.36.472.315.074.6.24.821.476.16.255.247.549.249.85.343 3.618.332 7.262-.035 10.879-.26 2.56-.7 5.107-.778 7.679-.109 3.565.478 7.13.285 10.692-.146 2.699-.737 5.35-1.324 7.989l-2.463 11.043c-.044.341-.181.664-.396.934-.208.19-.456.33-.727.41-7.21 2.549-15.162 1.926-21.887-1.714-.889-.488-1.776-1.053-2.354-1.886-.821-1.182-.897-2.747-.63-4.163.266-1.416.843-2.752 1.231-4.142.6-2.155.741-4.405.877-6.638.18-2.94.36-5.897.047-8.827-.216-2.017-.665-4.004-1.004-6.006-.499-3.016-.788-6.063-.866-9.12-.052-1.824.033-3.85 1.295-5.166.616-.64 1.437-1.026 2.272-1.338 1.402-.517 2.968-.821 4.385-.35 1.416.473 2.557 1.96 2.223 3.414-.154.676-.591 1.267-.698 1.952-.142.908.338 1.821 1.026 2.435 3.699 3.342 9.346-2.283 11.191-5.452z"/>
                <path fill="#3F3D56" d="M80.285 50.595c1.123-.413 2.344-.485 3.508-.205.74.177 1.541.489 2.225.158.248-.119.453-.314.704-.425.677-.297 1.556.068 2.155-.365.378-.273.5-.77.628-1.221.616-2.156 1.88-4.07 3.619-5.485-.216 1.574-.372 3.366.669 4.57.474.545 1.14.888 1.812 1.155.967.384 2.028.638 3.049.429 1.02-.21 1.974-.981 2.136-2.01-.035 1.546-1.506 2.625-1.919 4.118-.156.558-.141 1.151-.25 1.722-.277 1.457-1.318 2.627-2.227 3.801-2.905 3.777-4.76 8.253-5.378 12.977-.042.56-.16 1.113-.35 1.642-.2.406-.428.798-.68 1.174-1.505 2.541-1.041 5.748-.53 8.65.798 4.547 1.595 9 2.888 13.433.221.757.472 1.547 1.036 2.1-.178 1.791-1.987 2.608-3.612 3.382-1.605.766-3.086 1.768-4.393 2.974-.468.431-.93.916-1.1 1.53-.16.576-.045 1.21-.25 1.771-.206.56-1.027.963-1.388.49-.452-1.689.32-3.456.285-5.205-.024-1.18-.41-2.328-.466-3.508-.053-1.336.341-2.648.76-3.916 1.166-3.533 2.574-7.033 2.978-10.73.404-3.696-.35-7.734-2.974-10.371-3.114-3.145-4.842-7.408-8.18-10.296-.53-.458-1.129-1.027-1.04-1.72.06-.306.195-.592.391-.834 1.146-1.617 2.669-2.937 3.9-4.485 1.232-1.547 2.217-3.33 1.994-5.3zM69.326 53.906c-.206.205-.347.489-.585.665-.279.172-.596.27-.922.286-1.208.183-2.426.292-3.648.326-1.026 0-2.091-.09-3.079.19-1.377.39-2.477 1.479-3.167 2.73-.69 1.253-1.016 2.67-1.28 4.08-.584 3.106-.897 6.258-.935 9.419 1.692-1.35 3.2-2.914 4.485-4.655.986-1.337 1.879-2.815 3.285-3.707.646-.411 1.373-.682 2.024-1.082 1.356-.836 2.296-2.186 3.2-3.49.665-.966 2.588-2.855 2.74-4.013.13-1.106-1.4-1.646-2.118-.749zM76.477 34.585c.253.152.496.321.727.507 1.393.973 3.26.792 4.944.57.518-.065 1.05-.14 1.493-.41.712-.44 1.046-1.343.977-2.178-.07-.835-.49-1.605-1.004-2.258-1.374-1.745-3.403-2.852-5.614-3.062-.567-.075-1.143-.013-1.681.178-.663.273-1.162.836-1.774 1.211-1.804 1.109-4.583.616-5.747 2.385-.852 1.306-.244 3.08-.647 4.58-.3 1.12-1.163 2.14-.997 3.284.092.616.478 1.154.786 1.704.707 1.264 1.034 2.706.942 4.152.79.559 1.893-.31 2.112-1.25.22-.94-.032-1.942.154-2.89.33-1.665 1.8-2.886 2.463-4.413.477-1.094 1.253-2.942 2.866-2.11z"/>
                <path fill="#FBBEBE" d="M57.067 52.806c-.061.374-.1.786.107 1.102.41.616 1.35.394 2.09.487 1.151.141 2 1.231 2.225 2.377.223 1.145-.043 2.31-.335 3.436-.66 2.55-1.445 5.062-2.356 7.54-2.451-.29-5.031-1.232-6.333-3.324-1.182-1.903-1.06-4.327-1.812-6.437-.528-1.486-1.474-2.78-2.41-4.048 1.505.189 2.58-1.531 2.668-3.046.089-1.515-.388-3.052-.063-4.532.076-.351 6.006.755 6.583 1.155 1.666 1.156-.101 3.685-.364 5.29z"/>
                <path fill="#000" d="M57.067 52.806c-.061.374-.1.786.107 1.102.41.616 1.35.394 2.09.487 1.151.141 2 1.231 2.225 2.377.223 1.145-.043 2.31-.335 3.436-.66 2.55-1.445 5.062-2.356 7.54-2.451-.29-5.031-1.232-6.333-3.324-1.182-1.903-1.06-4.327-1.812-6.437-.528-1.486-1.474-2.78-2.41-4.048 1.505.189 2.58-1.531 2.668-3.046.089-1.515-.388-3.052-.063-4.532.076-.351 6.006.755 6.583 1.155 1.666 1.156-.101 3.685-.364 5.29z" opacity=".1"/>
                <circle cx="55.747" cy="42.323" r="8.005" fill="#FBBEBE"/>
                <path fill="#3F3D56" d="M53.282 51.657c.292-.456-.205-1.092.023-1.583.135-.296.478-.423.743-.616.332-.27.597-.614.774-1.004 1.246-2.394 1.623-5.147 1.067-7.79-.189-.886-.357-2.064.454-2.462.224-.1.47-.143.716-.124 1.462.048 2.874 1.027 4.292.68.991-.27 1.711-1.126 1.806-2.15.093-1.325-.9-2.462-1.878-3.355-1.759-1.618-4.44-1.977-6.829-2.016l-4.444-.074c-1.422-.025-3.017.02-4.007 1.04-1.424 1.468-.708 3.87-.913 5.904-.174 1.624-.987 3.111-2.258 4.136-.921.735-2.19 1.437-2.174 2.611 0 .41.177.784.29 1.172.453 1.536.02 3.233-.85 4.578-.87 1.344-2.143 2.379-3.463 3.284-.706.482-1.437.946-1.995 1.6-.612.757-.975 1.684-1.04 2.655-.088.742.064 1.492.435 2.14.868 1.388 2.951 1.592 4.378.787 1.426-.805 2.297-2.328 2.874-3.86.344-.908.695-1.95 1.578-2.358 1.117-.519 2.422.302 3.149 1.298.726.995 1.174 2.21 2.104 3.02 1.457 1.268 3.937 1.062 5.168-.428.88-1.07 1.076-2.55 1.027-3.935-.025-1.128-.382-2.224-1.027-3.15z"/>
                <path fill="#F86D70" d="M56.156 62.09c-.914.195-1.868-.236-2.547-.88-.68-.645-1.138-1.476-1.614-2.281-1.207-2.03-2.591-3.949-4.136-5.735-1.346-1.554-3.22-3.132-5.22-2.652-.67.193-1.29.525-1.822.975-3.584 2.837-5.457 7.317-4.962 11.86.156 1.308.511 2.586.66 3.9.099 1.083.128 2.171.085 3.258-.055 3.308-.168 6.808-1.952 9.596-2.764 4.31-4.244 9.458-6.274 14.163-1.097 2.543-1.753 5.25-2.398 7.943l-1.143 4.793-2.484 10.448c-.257 1.078-.513 2.207-.242 3.284.41 1.61 1.923 2.735 3.518 3.192 1.595.458 3.284.38 4.94.394 3.17.031 6.364.425 9.338 1.526.85.314 1.698.69 2.603.763.905.074 1.806-.162 2.654-.49 2.313-.895 4.296-2.464 6.427-3.73 1.33-.802 2.732-1.48 4.187-2.026.73-.273 1.515-.532 2.018-1.129.38-.45.55-1.037.675-1.611.694-3.235.228-6.587 0-9.888-.228-3.3-2.2-6.788-.568-9.666.328-.58.72-1.139.888-1.783.222-.842.035-1.747.222-2.597.138-.628.468-1.193.694-1.794.394-1.06.447-2.213.443-3.344-.01-2.483-.27-4.959-.78-7.39-.646-3.078 1.492-6.122 2.718-9.03.44-1.041 1.061-2.025 1.244-3.14.164-1.005-.047-2.03-.205-3.037-.236-1.562-.333-3.142-.288-4.721.04-1.417.189-2.86-.15-4.237-.338-1.377-1.305-2.713-2.695-2.997-.315-.092-.656-.039-.928.146-.16.157-.273.356-.326.575-.452 1.383-.363 2.873-.616 4.31-.252 1.437-.548 2.728-1.964 3.032z"/>
                <path fill="#BE6F72" d="M36.785 70.906c.084-.568-.18-1.324-.755-1.303-.53.02-.766.683-.764 1.215.002.531.074 1.141-.301 1.515-.333.33-.883.32-1.269.589-.276.197-.44.516-.437.856 0 .285.13.558.137.843.009.286-.182.616-.466.598-.299.502-.222 1.142.187 1.56.148.143.34.267.39.468.016.14.005.284-.033.42-.086.565.304 1.197.873 1.259-.318.228-.255.761.037 1.026.291.265.71.316 1.102.316.89-.005 1.77-.187 2.588-.536.28-.092.528-.263.715-.492.178-.244.153-.582-.06-.797.398.066.877.103 1.137-.205.364-.43-.026-1.07-.41-1.486.325-.048.59-.286.673-.605.084-.318-.031-.655-.292-.856-.13-.097-.31-.181-.328-.343-.018-.162.12-.267.177-.41.13-.323-.169-.651-.458-.846-.686-.456-1.696-.448-2.305-.908-.61-.46-.226-1.262-.138-1.878z"/>
                <path fill="#3F3D56" d="M79.131 39.76c-.497.05-.997.061-1.496.034-.177-.019-.337.107-.36.284l-.954 7.16c-.073.519-.286 1.01-.616 1.418-.549.657-.801 1.512-.696 2.362V63.18s-.061 1.622 1.185 1.622c1.49.187 3 .187 4.49 0 0 0 .998-.19.998-1.686V51.141c.154-.845-.07-1.716-.615-2.38-.319-.41-.525-.897-.598-1.41l-.991-7.31c-.023-.17-.175-.294-.347-.282z"/>
                <path fill="#000" d="M79.131 39.76c-.497.05-.997.061-1.496.034-.177-.019-.337.107-.36.284l-.954 7.16c-.073.519-.286 1.01-.616 1.418-.549.657-.801 1.512-.696 2.362V63.18s-.061 1.622 1.185 1.622c1.49.187 3 .187 4.49 0 0 0 .998-.19.998-1.686V51.141c.154-.845-.07-1.716-.615-2.38-.319-.41-.525-.897-.598-1.41l-.991-7.31c-.023-.17-.175-.294-.347-.282z" opacity=".1"/>
                <rect width="6.049" height="10.228" x="75.356" y="51.236" fill="#FC0" rx="2.268"/>
                <path fill="#3F3D56" d="M99.466 8.822c-.438.241-.895.447-1.367.616-.17.05-.268.227-.223.398l1.876 6.98c.134.506.128 1.04-.017 1.543-.255.818-.159 1.705.267 2.449l4.684 11.223s.567 1.52 1.718 1.039c1.45-.402 2.843-.986 4.147-1.737 0 0 .847-.558.273-1.937l-4.613-11.052c-.183-.84-.726-1.557-1.484-1.962-.451-.255-.828-.624-1.094-1.07l-3.73-6.363c-.087-.152-.28-.209-.437-.127z"/>
                <rect width="6.049" height="10.228" x="102.142" y="19.31" fill="#FC0" rx="2.268" transform="rotate(-22.65 105.167 24.424)"/>
                <path fill="#FBBEBE" d="M41.863 51.868c-2.206.91-3.079 3.738-2.561 6.065.517 2.328 2.075 4.268 3.594 6.113l4.257 5.193c1.176 1.437 2.463 2.95 4.257 3.45 2.623.734 5.247-.937 7.515-2.448 6.77-4.511 14.007-8.28 21.585-11.24.741-.288 1.5-.579 2.11-1.092 1.265-1.063 1.62-3.024.916-4.516-.704-1.492-2.344-2.463-3.997-2.475-1.652-.013-3.26.862-4.253 2.184-.474.63-.82 1.35-1.278 1.99-1.158 1.61-2.964 2.605-4.732 3.504-4.261 2.175-8.648 4.094-13.137 5.748-.82.3-1.746.585-2.52.189-.474-.245-.795-.706-1.082-1.158-1.31-2.061-2.35-4.28-3.1-6.605-.56-1.745-1.013-3.646-2.36-4.886-1.909-1.757-5.365-1.336-6.796.821 0 0-1.677 2.453-.65 3.48 1.025 1.026 2.232-4.317 2.232-4.317zM156.983 43.374c.3.799.308 1.673.265 2.525-.053 1.039-.314 2.258-1.279 2.654-.628.252-1.404.062-1.962.443-.677.46-.645 1.45-.54 2.258.29 2.223.616 4.528 1.827 6.409.65 1.007 1.531 1.847 2.424 2.65 1.78 1.605 3.732 3.173 6.07 3.709.38.107.781.124 1.17.049.383-.118.73-.33 1.012-.616 1.354-1.244 2.052-3.02 2.955-4.629.639-1.151 1.4-2.258 1.76-3.526.603-2.261-.127-4.669-1.885-6.213-.4-.343-.843-.63-1.231-.986-1.014-.92-1.606-2.24-1.848-3.586-.242-1.346-.205-2.732-.088-4.105-2.053-.158-4.09.09-6.094.49-.891.18-2.145.261-2.952.686-.907.483.148 1.1.396 1.788z"/>
                <path fill="#000" d="M156.983 43.374c.3.799.308 1.673.265 2.525-.053 1.039-.314 2.258-1.279 2.654-.628.252-1.404.062-1.962.443-.677.46-.645 1.45-.54 2.258.29 2.223.616 4.528 1.827 6.409.65 1.007 1.531 1.847 2.424 2.65 1.78 1.605 3.732 3.173 6.07 3.709.38.107.781.124 1.17.049.383-.118.73-.33 1.012-.616 1.354-1.244 2.052-3.02 2.955-4.629.639-1.151 1.4-2.258 1.76-3.526.603-2.261-.127-4.669-1.885-6.213-.4-.343-.843-.63-1.231-.986-1.014-.92-1.606-2.24-1.848-3.586-.242-1.346-.205-2.732-.088-4.105-2.053-.158-4.09.09-6.094.49-.891.18-2.145.261-2.952.686-.907.483.148 1.1.396 1.788z" opacity=".1"/>
                <path fill="#FBBEBE" d="M145.53 49.415c-3.334-1.143-4.927-5.61-8.416-6.11-.55-.08-1.115-.05-1.655-.177-2.01-.476-2.873-2.8-3.454-4.78-1.958-6.604-4.516-13.066-8.15-18.92-1.533-2.463-3.957-4.487-5.063-7.184-.255-.616-.384-1.318-.842-1.804-.457-.487-1.436-.557-1.685.063-.07.22-.085.453-.045.68l.24 2.555-4.175-.375c-.386-.066-.783-.038-1.156.082-.402.201-.723.535-.909.946-1.412 2.654.093 6.131 2.584 7.81 2.911 1.96 7.068 2.258 9.001 5.183 1.15 1.74 1.172 3.98 1.93 5.924.36.93.888 1.784 1.31 2.685.802 1.718 1.212 3.586 1.834 5.376.891 2.56 2.211 4.945 3.527 7.315 1.014 1.831 2.052 3.695 3.612 5.095 1.027.92 2.234 1.601 3.44 2.258 2.969 1.621 6.468 3.181 9.613 1.938.18-2.804-.523-5.93-1.541-8.56zM155.651 137.777c-.252 2.678-1.878 5.105-2.258 7.683-2.504-.392-4.97-.897-7.354-1.472-.294-.07-.585-.142-.879-.205 1.35-3.695.175-7.833.532-11.768.035-.378.084-.755.15-1.129 3.093-1.055 5.886-2.463 9.13-2.053.063.657.129 1.316.193 1.973.13 1.312.258 2.623.385 3.933.13 1.007.164 2.024.101 3.038zM177.044 144.477c-1.216.369-2.464.691-3.767.956-.218.045-.437.088-.657.13-1.334.25-2.685.432-4.05.558-.14-2.853-2.052-5.477-2.331-8.406-.058-.728-.05-1.46.022-2.186.025-.287.053-.575.08-.862l.579-5.905c.46-.058.925-.081 1.39-.068 2.668.063 5.096 1.22 7.74 2.12.197 1.246.266 2.509.205 3.769-.1 3.206-.615 6.451.575 9.393.068.166.142.332.214.5z"/>
                <path fill="#F86D70" d="M142.395 99.454c.36 2.8-1.071 5.48-1.691 8.233-.41 1.82-.466 3.695-.522 5.563l-.324 11.189c-.033 1.118-.061 2.258.28 3.331.685 2.151 2.797 3.605 4.995 4.122 2.199.517 4.498.254 6.737-.041 1.098-.146 2.244-.316 3.153-.95 1.25-.873 1.796-2.427 2.268-3.876l1.332-4.09c1.534 3.452.885 7.226 1.805 10.89.059.34.2.658.41.93.388.431 1.026.5 1.607.54 4.023.283 8.102.565 12.06-.205 1.087-.205 2.222-.538 2.974-1.355.874-.95 1.026-2.348 1.016-3.64-.056-4.435-1.659-8.715-2.016-13.136-.154-1.895-.078-3.8-.146-5.7-.053-1.43-.187-2.855-.4-4.27-.068-.648-.245-1.28-.525-1.868-.616-1.15-1.895-1.773-3.106-2.257-9.41-3.822-19.759-3.786-29.907-3.41z"/>
                <circle cx="159.816" cy="35.55" r="8.826" fill="#FBBEBE"/>
                <path fill="#E3E8F4" d="M167.51 51.096c-.656 1.437-1.686 2.874-3.22 3.24-1.41.338-2.904-.342-3.943-1.353-1.038-1.012-1.718-2.326-2.438-3.584-.526-.92-1.11-1.848-2-2.427-1.214-.788-2.783-.767-4.215-.535-1.433.232-2.856.646-4.31.552-1.813-.121-3.66-1.026-5.37-.423.554 2.48.354 5.205.29 7.747.012.392-.044.783-.163 1.157-.15.349-.351.673-.598.96l-1.642 2.117c1.761 1.318 3.284 3.038 3.9 5.15.347 1.203.24 2.48.228 3.732-.039 3.676.76 7.338.507 11.006-.296 4.296-2.012 8.356-2.896 12.57-.758 3.618-.9 7.337-.423 11.003 9.2 3.183 18.679 4.813 28.404 5.347 1.718.094 3.574.108 4.984-.879 1.172-.82 1.829-2.227 2.053-3.643.223-1.417.07-2.858-.087-4.282l-1.266-11.556c-.24-2.193-.48-4.397-.324-6.595.117-1.643.453-3.254.788-4.861l2.053-9.865c.293-1.402.589-2.814 1.17-4.122.476-1.067 1.135-2.052 1.66-3.091.626-1.245 1.058-2.58 1.28-3.955.09-.4.084-.815-.015-1.211-.22-.674-.891-1.078-1.517-1.409-3.818-2.006-7.91-3.44-12.144-4.259-.287 1.21-.232 2.342-.747 3.47z"/>
                <path fill="#3F3D56" d="M166.657 45.185c1.027-1.967 2.946-3.346 4.06-5.267 1.25-2.211 1.344-4.892.25-7.185-.391-.8-.923-1.535-1.23-2.373-.344-.952-.376-2-.773-2.933-.544-1.276-1.722-2.196-3.005-2.726-1.283-.53-2.668-.72-4.05-.905l-4.663-.628c-.675-.09-1.375-.18-2.032 0s-1.269.716-1.322 1.398c-.064.807.644 1.558.48 2.35-.06.28-.223.563-.13.834.085.18.23.326.411.41 1.107.616 2.429.671 3.627 1.074 1.2.402 2.402 1.412 2.28 2.668-.065.675-.5 1.377-.204 1.983.283.56 1.026.663 1.62.837 1.918.557 3.265 2.638 2.986 4.619-.086.616-.308 1.205-.353 1.822-.15 2.164.19 2.782 1.958 4.04l.09-.018z"/>
                <path fill="#BE6F72" d="M178.647 54.54c.01.41-.066.817-.22 1.197-.64 1.365-2.6 1.279-3.9 2.053-1.617.965-1.975 3.118-2.122 4.994-.169 2.124-.284 4.28.152 6.363.435 2.083 1.482 4.116 3.23 5.337 2.129 1.48 5.023 1.531 7.453.63 2.43-.901 4.46-2.644 6.222-4.549 1.67-1.806 3.167-3.82 4.064-6.112.158-.41.298-.846.17-1.257-.19-.615-.862-.895-1.408-1.231-1.274-.77-2.124-2.112-2.565-3.53-.442-1.42-.516-2.928-.53-4.416-.016-1.546-.02-3.235-1.006-4.427-.985-1.193-2.693-1.528-4.249-1.515-1.272 0-4.795.12-5.663 1.231-.712.924.423 3.91.372 5.232z"/>
                <path fill="#000" d="M178.647 54.54c.01.41-.066.817-.22 1.197-.64 1.365-2.6 1.279-3.9 2.053-1.617.965-1.975 3.118-2.122 4.994-.169 2.124-.284 4.28.152 6.363.435 2.083 1.482 4.116 3.23 5.337 2.129 1.48 5.023 1.531 7.453.63 2.43-.901 4.46-2.644 6.222-4.549 1.67-1.806 3.167-3.82 4.064-6.112.158-.41.298-.846.17-1.257-.19-.615-.862-.895-1.408-1.231-1.274-.77-2.124-2.112-2.565-3.53-.442-1.42-.516-2.928-.53-4.416-.016-1.546-.02-3.235-1.006-4.427-.985-1.193-2.693-1.528-4.249-1.515-1.272 0-4.795.12-5.663 1.231-.712.924.423 3.91.372 5.232z" opacity=".1"/>
                <path fill="#BE6F72" d="M167.702 109.588c.064.313.211.602.427.837.203.16.44.272.692.327 6.736 1.976 13.933 1.188 20.908.382-.955-2.907-1.915-5.846-2.18-8.894-.22-2.515.027-5.132-.864-7.49-.263-.698-15.576 2.514-17.086 2.775-.774.133-1.665.088-2.213.702-.661.743-.716 2.512-.786 3.438-.197 2.674.355 5.367 1.102 7.923zM183.041 142.171c-1.231.571-2.502 1.103-3.818 1.579-.711.259-1.438.5-2.18.727-1.215.369-2.463.691-3.766.956l-2.231-5.655c-.548-1.388-1.096-2.781-1.554-4.2-.318-.968-.58-1.954-.784-2.953-.672-3.396-.497-6.905.509-10.216 2.845.535 5.626.884 8.428 1.29 1.496.206 2.997.448 4.516.734.119.989.227 1.978.324 2.968.148 1.527.269 3.054.363 4.581.21 3.394.274 6.79.193 10.19z"/>
                <path fill="#000" d="M183.041 142.171c-1.231.571-2.502 1.103-3.818 1.579-.711.259-1.438.5-2.18.727-1.215.369-2.463.691-3.766.956l-2.231-5.655c-.548-1.388-1.096-2.781-1.554-4.2-.318-.968-.58-1.954-.784-2.953-.672-3.396-.497-6.905.509-10.216 2.845.535 5.626.884 8.428 1.29 1.496.206 2.997.448 4.516.734.119.989.227 1.978.324 2.968.148 1.527.269 3.054.363 4.581.21 3.394.274 6.79.193 10.19z" opacity=".1"/>
                <path fill="#BE6F72" d="M198.826 133.277c.017 1.183-.32 2.39-.632 3.55-.023.081-.043.162-.064.244-.742-.232-1.382-.711-1.812-1.36-.222-.35-.387-.735-.487-1.138-.929.632-1.866 1.258-2.812 1.878-3.093 2.032-6.363 4.05-9.978 5.72-1.231.571-2.502 1.103-3.818 1.579-.273-.958-.533-1.922-.78-2.892-.269-1-.48-2.013-.632-3.036-.3-2.324-.067-4.687.682-6.907l.092-.267c.349-.988.8-1.936 1.345-2.83.51-.822 1.523-.684 2.555-.411.468.12.942.267 1.373.357 2.683.562 5.469-.018 8.21.135 1.308.066 2.588.392 3.767.96 1.32.662 2.384 1.676 2.8 3.078.06.202.105.408.136.616.034.24.053.482.055.724zM149.444 38.743c-4.239-4.105-9.056-7.584-13.985-10.837-1.282-.805-2.516-1.684-3.694-2.634-1.232-1.026-2.306-2.231-3.613-3.155-1.308-.924-2.925-1.558-4.495-1.254-1.57.304-2.966 1.806-2.736 3.379.205 1.383 1.449 2.331 2.598 3.126 2.176 1.504 4.362 3.013 6.729 4.193.822.373 1.62.798 2.387 1.273 1.474.993 2.547 2.463 3.662 3.844 4.207 5.226 9.36 9.613 15.19 12.932.07.041 2.497-5.2 2.395-5.879-.226-1.562-3.321-3.904-4.438-4.988z"/>
                <path fill="#3F3D56" d="M185.697 105.076c-3.271.206-6.41 1.31-9.61 2.014-3.2.704-6.677.977-9.647-.41l1.806 12.334c.1.685.205 1.387.055 2.063-.137.644-.494 1.252-.463 1.91.047 1.043 1.026 1.776 1.947 2.258 2.678 1.414 5.678 2.105 8.704 2.006-.224.903-.503 1.796-.73 2.7 1.51 1.619 3.977 1.727 6.13 2.24 1.642.388 3.182 1.062 4.79 1.536 1.947.574 3.968.856 5.997.835 1.369-.014 2.82-.205 3.883-1.059 1.308-1.053 1.714-2.843 1.997-4.497.159-.924.304-1.86.206-2.792-.107-1.071-.522-2.085-.932-3.079l-2.812-6.825c-.511-1.231-1.027-2.481-1.642-3.67-2.012-3.844-5.35-7.833-9.679-7.564z"/>
                <path fill="#FC0" d="M188.202 62.46c.5-1.314 1.826-2.122 3.222-1.965.821.115 1.554.565 2.258 1.004l3.92 2.447c.65.386 1.274.815 1.867 1.285 2.703 2.241 3.746 5.926 4.043 9.425.298 3.5 0 7.06.696 10.502-1.654 1.37-3.49 2.53-5.144 3.9-.866.716-1.742 1.436-2.4 2.358-.52.725-.892 1.554-1.436 2.258-.89 1.113-2.183 1.83-3.598 2 .897.52 1.4 1.532 1.642 2.54s.308 2.053.576 3.06c.37 1.37 1.136 2.62 1.388 4.016.177.962.099 1.95.162 2.927.32 5.055 4.288 9.475 4.032 14.532-1.873-.68-3.645-1.612-5.267-2.769-.731-.523-1.437-1.09-2.13-1.654l-5.227-4.239c-2.543-2.052-5.111-4.15-7.133-6.728-1.269-1.618-2.303-3.408-3.576-5.02-1.272-1.614-2.838-3.08-4.782-3.757-.286.429-.793.726-1.078 1.155-.05.068-.09.143-.119.222-.035.191-.011.389.068.567.229.83.367 1.683.41 2.543l.13 1.543c.048.41.048.823 0 1.232-.195 1.32-1.419 2.344-2.739 2.55-.19.04-.389.034-.576-.02-.368-.122-.571-.51-.682-.88-.52-1.753.277-3.602.34-5.427.01-.463-.006-.926-.046-1.387l-.124-1.821c-1.192-.249-1.878-1.53-2.194-2.706-.854-3.175-1.714-6.461-1.22-9.713.132-.87.362-1.753.206-2.623-.205-1.164-1.043-2.108-1.484-3.204-1.437-3.574 1.616-7.453 1.332-11.29-.119-1.61-1.14-3.01-1.757-4.505-.318-.871-.731-1.705-1.231-2.486-.628-.897-1.476-1.615-2.3-2.338-2.541-2.23-4.952-4.606-7.22-7.114-1.165-.12-2.258-.621-3.11-1.425-.542-.513-.987-1.19-1.002-1.935-.014-.745.536-1.527 1.281-1.566.435-.023.842.193 1.266.287 1.33.291 2.669-.688 3.262-1.917.593-1.23.593-2.644.583-4.007 1.322-.235 2.67.238 3.557 1.246.918.998 1.515 2.241 2.238 3.387.294.509.671.965 1.116 1.348.988.785 2.41.932 3.272 1.848.437.468.68 1.088 1.08 1.589 1.125 1.41 3.183 1.582 4.72 2.51 1.538.928 2.608 2.623 4.311 3.173.616.206 1.287.232 1.897.46 1.408.523 2.268 2.02 2.463 3.508.195 1.488-.137 2.993-.474 4.458l-.79 3.43c-.175.76-.308 1.673.252 2.215.265.22.576.376.91.458 1.436.468 3.037.928 4.388.265.638-.317 1.14-.85 1.597-1.396 2.003-2.36 3.336-5.452 4.354-8.356z"/>
                <path fill="#BE6F72" d="M204.403 132.26c-.283 1.877-1.318 3.725-3.011 4.585-1.015.5-2.187.582-3.262.226-.742-.232-1.382-.711-1.812-1.36-.222-.35-.387-.735-.487-1.138 0-.02-.01-.044-.014-.064-.154-.726-.218-1.469-.19-2.21-.001-1.153.067-2.303.204-3.447.115-.963.304-1.916.567-2.85.382-1.331.932-2.614 1.437-3.9.262-.677.515-1.356.722-2.052.125-.41.232-.833.318-1.26l.031-.154c.017-.086.03-.172.045-.259.206-1.17.265-2.38.793-3.438 1.231-2.481 3.629-1.847 3.994.441.028.178.043.357.047.536.056 2.896-1.094 5.727-.568 8.634.148.708.334 1.409.558 2.097.185.635.351 1.277.478 1.928.258 1.21.309 2.456.15 3.684z"/>
                <path fill="#FC0" d="M205.532 100.053c.055 1.187 0 2.388.238 3.552.556 2.75 2.669 5.184 2.435 7.98-.058.682-.31 1.414-.906 1.751-.595.337-1.58.31-1.775.987-.056.19-.027.394-.088.581-.13.398-.616.569-1.027.559-.41-.01-.82-.146-1.246-.111-1.488.125-2.034 2.116-3.36 2.8-.893.46-2.052.205-2.79-.475-.736-.68-1.059-1.738-1.001-2.742.043-.757.283-1.488.41-2.235.232-1.332.111-2.697-.01-4.044-.178-1.973-.363-3.97-1.012-5.84-.306-.882-.712-1.726-.977-2.62-.377-1.267-.464-2.6-.503-3.92-.08-2.777.111-5.747 1.77-7.98 1.246-1.675 3.031-3.036 4.442-4.586.882-.97 1.137-1.274 2.112-.451.802.675 1.642 1.607 1.732 2.523.246 2.346 0 4.653.44 7.042.439 2.39 1.001 4.777 1.116 7.23z"/>
                <circle cx="184.242" cy="44.376" r="10.468" fill="#BE6F72"/>
                <path fill="#3F3D56" d="M193.828 64.401c.23-.322.503-.669.893-.737.294-.022.589.04.85.179l2.756 1.152c.745-1.23 1.184-2.622 1.281-4.056.058-.881-.012-1.774.156-2.64.25-1.285 1.012-2.437 1.189-3.734.14-1.047-.113-2.1-.265-3.145-.468-3.226.035-6.519-.234-9.768-.27-3.25-1.572-6.73-4.47-8.223-.822-.41-1.707-.657-2.56-.981-1.903-.725-3.609-1.884-5.49-2.668-1.88-.785-4.088-1.144-5.91-.243-1.823.901-2.885 3.436-1.7 5.09.39.545.96.93 1.506 1.323 1.11.794 2.244 1.775 2.5 3.118.46 2.416-2.052 4.31-2.76 6.673-.262.922-.285 1.896-.068 2.83.306 1.4 1.053 2.722 1.026 4.155-.02 1.57-.96 2.993-1.137 4.555-.064.572-.025 1.153-.096 1.724-.127.753-.35 1.486-.663 2.182-1.643 4.105-3.307 8.254-5.748 11.944 2.613.044 5.196-.56 7.519-1.757-.334 1.582-.973 3.084-1.882 4.421 2.088-.241 4.097-.942 5.883-2.052-.434 1.551-1.061 3.042-1.868 4.436.07-.12 1.36-.41 1.599-.546.49-.279.883-.699 1.129-1.205.698-1.248 1.133-2.753 1.78-4.05 1.382-2.78 2.982-5.448 4.784-7.977zM114.436 1.58c-.497.05-.997.062-1.496.035-.177-.019-.337.107-.36.284l-.954 7.16c-.073.519-.286 1.01-.616 1.418-.549.657-.8 1.512-.695 2.362v12.162s-.062 1.622 1.184 1.622c1.491.187 3 .187 4.491 0 0 0 .998-.19.998-1.686V12.962c.154-.845-.071-1.716-.616-2.38-.319-.41-.525-.897-.597-1.41l-.992-7.31c-.023-.17-.175-.294-.347-.281z"/>
                <rect width="6.049" height="10.228" x="110.661" y="13.057" fill="#FC0" rx="2.268"/>
                <path fill="#3F3D56" d="M128.6 12.049c-.498.05-.998.062-1.497.035-.177-.02-.337.107-.36.283l-.954 7.16c-.073.52-.286 1.01-.615 1.418-.55.657-.802 1.513-.696 2.363v12.161s-.062 1.622 1.184 1.622c1.491.187 3 .187 4.491 0 0 0 .998-.189.998-1.685V23.43c.154-.846-.071-1.716-.616-2.381-.318-.41-.524-.896-.597-1.41l-.992-7.31c-.023-.17-.175-.293-.347-.281z"/>
                <rect width="6.049" height="10.228" x="124.825" y="23.525" fill="#FC0" rx="2.268"/>
                <g opacity=".2" transform="translate(100.579 79.437)">
                    <path fill="#3F3D56" d="M12.1 55.263c-.006.221-.032.442-.076.659-1.428-.227-2.865-.433-4.31-.616v-.176c.013-.616.19-1.217.513-1.741.423-.67 1.065-1.088 1.773-1.065.709.022 1.322.48 1.702 1.172.287.543.425 1.153.398 1.767z"/>
                    <ellipse cx="10.02" cy="51.689" fill="#3F3D56" rx="2.876" ry="2.196" transform="rotate(-88.19 10.02 51.689)"/>
                    <ellipse cx="10.132" cy="48.174" fill="#3F3D56" rx="2.876" ry="2.196" transform="rotate(-88.19 10.132 48.174)"/>
                    <ellipse cx="10.242" cy="44.66" fill="#3F3D56" rx="2.876" ry="2.196" transform="rotate(-88.19 10.242 44.66)"/>
                    <ellipse cx="10.354" cy="41.146" fill="#3F3D56" rx="2.876" ry="2.196" transform="rotate(-88.19 10.354 41.146)"/>
                    <path fill="#FC0" d="M2.884 16.83c-.29-.392-.55-.803-.78-1.232l5.8-.766-6.243-.15c-1.127-2.67-1.104-5.688.063-8.341l8.235 4.608-7.543-5.92C4.49 1.674 8.266-.24 12.198.07c3.932.311 7.36 2.794 8.882 6.433 1.522 3.64.88 7.824-1.66 10.84.45.61.832 1.265 1.14 1.957l-7.614 3.654 8.073-2.429c1.033 3.408.275 7.108-2.016 9.834 3.258 4.42 2.571 10.602-1.577 14.198-4.149 3.597-10.365 3.401-14.279-.45-3.913-3.85-4.21-10.063-.68-14.269-2.882-3.911-2.712-9.287.41-13.01h.007z"/>
                    <path fill="#000" d="M21.466 23.928c-.071 2.36-.94 4.627-2.463 6.432 3.258 4.42 2.571 10.602-1.577 14.198-4.149 3.597-10.365 3.401-14.279-.45-3.913-3.85-4.21-10.063-.68-14.269-1.348-1.833 19.036-7.092 19-5.911z" opacity=".1"/>
                </g>
            </g>
        </g>
    </g>
</svg>
