<svg width="278" height="170" viewBox="0 0 278 170" fill="none" xmlns="http://www.w3.org/2000/svg">
    <g filter="url(#lau4fs4y6a)">
        <g clip-path="url(#yzdm4ic6wb)">
            <path d="M226.064 18.514C195.04-5.4 151.877-6.377 120.389 16.923 103.743 29.24 90.838 48.085 93.186 76.778c.83 10.148 3.14 18.474 6.509 25.29 13.648 27.631 69.702 26.567 72.816 26.563a129.91 129.91 0 0 1 6.05.135 132.806 132.806 0 0 1 21.015 2.657c9.871 2.057 22.436 3.091 33.663-.805a38.977 38.977 0 0 0 5.544-2.411c6.17-3.279 13.077-6.412 17.114-14.189 3.035-5.836 5.246-13.155 6.31-22.27 3.872-33.197-15.477-57.305-36.143-73.234z" fill="#F2F2F2"/>
            <path d="M178.696 137.49c48.996 0 88.715-3.728 88.715-8.327 0-4.6-39.719-8.328-88.715-8.328s-88.715 3.728-88.715 8.328c0 4.599 39.719 8.327 88.715 8.327z" fill="#38347D"/>
            <path opacity=".1" d="M174.363 133.072c45.57 0 82.511-1.75 82.511-3.909s-36.941-3.909-82.511-3.909c-45.57 0-82.512 1.75-82.512 3.909s36.942 3.909 82.512 3.909z" fill="#000"/>
            <path d="M220.009 17.634v9.343h-12.163v101.89h25.384V17.634h-13.221zM153.023 80.388V64.347H137.51v16.041h-5.817v48.653h26.971V80.388h-5.641z" fill="#38347D"/>
            <path d="M155.668 106.479H134.69v22.74h20.978v-22.74z" fill="#38347D"/>
            <path opacity=".1" d="M138.04 106.479h-3.35v22.74h3.35v-22.74z" fill="#000"/>
            <path d="M198.856 12.521v5.465h-31.025v-5.465h-9.167V129.22h49.182V12.522h-8.99z" fill="#38347D"/>
            <path opacity=".1" d="M205.731 12.521h-6.875v5.465h6.875v-5.465zM165.539 12.521h-6.875V129.22h6.875V12.522z" fill="#000"/>
            <path d="M123.584 45.839v-4.407h-4.583v4.407h-8.286v83.38h20.978v-83.38h-8.109z" fill="#38347D"/>
            <path opacity=".1" d="M121.469 41.432h-2.468v4.407h2.468v-4.407zM113.183 45.838h-2.468v83.38h2.468v-83.38zM205.731 57.473h-6.875v71.746h6.875V57.473zM131.693 45.838h-6.346v15.336h6.346V45.838z" fill="#000"/>
            <path d="M176.116 27.327h-9.872v4.23h9.872v-4.23zM197.093 70.87h-9.872v4.23h9.872v-4.23zM176.116 101.366h-9.872v4.231h9.872v-4.231zM126.229 64.875h-9.872v4.23h9.872v-4.23zM150.202 108.946h-9.871v4.231h9.871v-4.231z" fill="#FC0"/>
            <path opacity=".1" d="M153.728 84.09h-16.923v7.051h16.923V84.09zM227.766 35.084h-16.923v7.051h16.923v-7.051zM227.766 50.067h-16.923v7.052h16.923v-7.052zM227.766 65.053h-16.923v7.05h16.923v-7.05zM227.766 80.036h-16.923v7.051h16.923v-7.05zM227.766 95.02h-16.923v7.052h16.923V95.02zM227.766 110.003h-16.923v7.051h16.923v-7.051z" fill="#000"/>
            <path d="M239.048 66.99V47.777h-12.34v19.215h-4.407v62.227h20.977V66.991h-4.23z" fill="#38347D"/>
            <path opacity=".1" d="M230.587 47.776h-3.879v19.215h3.879V47.776zM226.179 66.991h-3.878v62.227h3.878V66.991zM243.278 98.192h-10.401v6.17h10.401v-6.17z" fill="#000"/>
            <path d="M243.102 89.025h-9.872v4.231h9.872v-4.23z" fill="#FC0"/>
            <path d="M274 93.299c0 15.705-9.336 21.188-20.853 21.188-11.517 0-20.854-5.483-20.854-21.188 0-15.706 20.854-35.685 20.854-35.685S274 77.594 274 93.3z" fill="#FC0"/>
            <path d="m252.387 112.085.213-13.144 8.888-16.26-8.854 14.198.096-5.91 6.125-11.764-6.1 10.2.173-10.629 6.559-9.366-6.532 7.695.108-19.49-.678 25.801.056-1.064-6.67-10.209 6.563 12.252-.622 11.871-.018-.315-7.689-10.743 7.665 11.856-.077 1.485-.014.022.006.122-1.576 30.118h2.106l.253-15.557 7.646-11.826-7.627 10.657z" fill="#38347D"/>
            <path d="M121.167 93.467c0 15.705-9.337 21.189-20.854 21.189S79.46 109.172 79.46 93.467s20.853-35.684 20.853-35.684 20.854 19.98 20.854 35.684z" fill="#FC0"/>
            <path d="m99.554 112.253.213-13.144 8.889-16.26-8.855 14.198.096-5.91 6.125-11.764-6.1 10.2.173-10.629 6.559-9.366-6.532 7.695.108-19.49-.678 25.8.055-1.063-6.669-10.209 6.563 12.252-.622 11.87-.018-.314-7.689-10.743 7.665 11.856-.077 1.484-.014.023.006.122-1.576 30.118h2.106l.253-15.557 7.646-11.826-7.627 10.657zM53.769 161.671c27.486 0 49.768-3.014 49.768-6.732 0-3.718-22.282-6.732-49.769-6.732-27.486 0-49.768 3.014-49.768 6.732 0 3.718 22.282 6.732 49.769 6.732z" fill="#38347D"/>
            <path opacity=".1" d="M53.768 160.207c21.511 0 38.95-2.359 38.95-5.269 0-2.909-17.439-5.268-38.95-5.268-21.511 0-38.95 2.359-38.95 5.268 0 2.91 17.439 5.269 38.95 5.269z" fill="#000"/>
            <path d="M46.732 59.091c5.839 0 10.572-4.733 10.572-10.572 0-5.84-4.733-10.573-10.572-10.573-5.84 0-10.573 4.734-10.573 10.573S40.893 59.09 46.732 59.09z" fill="#38347D"/>
            <path d="M49.619 57.982a5.917 5.917 0 1 0 0-11.835 5.917 5.917 0 0 0 0 11.835z" fill="#FFB9B9"/>
            <path d="M46.309 55.175s1.504 3.61-.803 4.613c-2.306 1.003-1.404 6.92-1.404 6.92l9.027-1.905s0-2.508-1.806-3.61c-1.805-1.104 2.407-6.018 2.407-6.018H46.31zM43.4 81.85l.301 3.31 13.54 2.307-1.304-6.117-12.537.5zM43.2 108.429l.502 14.041s-2.407 5.717-.502 16.248c1.906 10.53.502 13.439.502 13.439l6.82.902-.402-3.911-1.604-3.41.702-19.457s3.109-7.221 3.21-8.625c.1-1.404-.201-11.634-.201-11.634l-9.027 2.407z" fill="#FFB9B9"/>
            <path opacity=".1" d="m43.2 108.429.502 14.041s-2.407 5.717-.502 16.248c1.906 10.53.502 13.439.502 13.439l6.82.902-.402-3.911-1.604-3.41.702-19.457s3.109-7.221 3.21-8.625c.1-1.404-.201-11.634-.201-11.634l-9.027 2.407z" fill="#000"/>
            <path d="M45.306 147.342s0-1.304-.602-1.404c-.602-.101-1.404-.401-1.404 0s-.1 3.209-.3 3.61c-.201.401-.602 1.906-.302 2.507 0 0-.902 2.307-.2 2.508.702.2 4.714.2 4.714.2l.2-1.103s8.926 2.808 10.832.301c0 0 .902-1.805-.703-2.206 0 0-3.61.1-4.914-1.404-1.303-1.505-3.81-5.015-3.81-5.015s-2.007.301-1.806 1.605v.401h-1.705z" fill="#4E4C6E"/>
            <path d="M48.716 108.73s1.003 7.021 4.513 12.136c0 0 1.806 4.212 1.505 5.516-.301 1.303-.301 8.424 2.708 14.742l2.808 9.227 1.404 3.31 2.407 1.003 3.911.301-2.206-4.614-1.103-2.407s-2.006-4.112-2.006-7.722c0-3.611-1.304-12.135-1.304-12.135s0-19.256-2.106-20.46c-2.106-1.203-10.53 1.103-10.53 1.103z" fill="#FFB9B9"/>
            <path d="m44.203 84.158-1.003-.201v4.513s-.402 3.51-1.304 4.212c-.903.702-4.413 14.543-3.21 15.345 1.204.802 17.351 5.015 21.262.702L57.24 95.591s.201-9.026 0-9.026c-.2 0-13.037-2.407-13.037-2.407z" fill="#38347D"/>
            <path d="M53.73 63.9s-5.015-3.41-10.03 1.003c0 0-1.805 7.421-2.106 9.226-.3 1.805-2.206 9.227-.802 9.93 1.404.701 1.404-1.706 5.015-1.204 3.61.501 11.333.3 11.333-.301 0-.602-1.806-5.416-1.104-6.218.703-.803 1.906-4.614.703-6.52-1.204-1.905-3.01-5.916-3.01-5.916z" fill="#FC0"/>
            <path d="m47.211 84.159 10.03 4.713s4.011 5.115 4.914 2.207c.902-2.909-3.009-5.015-3.009-5.015l-6.72-3.811-5.215 1.705v.2z" fill="#FFB9B9"/>
            <path opacity=".1" d="M47.913 64.902s-5.716 17.652-.501 20.46 6.017-2.507 6.017-2.507-3.51-2.207-2.407-4.915c1.104-2.708 2.107-13.038 2.107-13.038h-5.216z" fill="#000"/>
            <path d="M47.613 64.302s-5.717 17.651-.502 20.46c5.215 2.807 6.018-2.508 6.018-2.508s-3.51-2.207-2.407-4.914c1.103-2.708 2.106-13.038 2.106-13.038h-5.215z" fill="#FC0"/>
            <path d="M61.396 149.405s-.1-1.365-.738-1.424c-.638-.059-1.502-.312-1.471.108.031.42.143 3.369-.036 3.805-.18.436-.484 2.042-.122 2.649 0 0-.767 2.486-.016 2.642.75.156 4.952-.154 4.952-.154l.125-1.171s9.566 2.252 11.368-.521c0 0 .806-1.96-.906-2.257 0 0-3.774.384-5.255-1.091-1.482-1.475-4.379-4.958-4.379-4.958s-2.078.47-1.767 1.82l.031.42-1.786.132z" fill="#4E4C6F"/>
            <path d="M49.606 52.042c3.944 0 7.14-1.702 7.14-3.802s-3.196-3.803-7.14-3.803c-3.944 0-7.141 1.703-7.141 3.803 0 2.1 3.197 3.802 7.14 3.802z" fill="#38347D"/>
            <path d="M43.671 54.639c.563 0 1.02-.706 1.02-1.577 0-.87-.457-1.577-1.02-1.577s-1.02.706-1.02 1.577c0 .87.457 1.577 1.02 1.577z" fill="#FFB9B9"/>
            <path d="M40.24 42.953a5.008 5.008 0 1 0 0-10.015 5.008 5.008 0 0 0 0 10.015z" fill="#38347D"/>
        </g>
    </g>
    <defs>
        <clipPath id="yzdm4ic6wb">
            <path fill="#fff" transform="translate(4)" d="M0 0h270v161.671H0z"/>
        </clipPath>
        <filter id="lau4fs4y6a" x="0" y="0" width="278" height="169.671" filterUnits="userSpaceOnUse" color-interpolation-filters="sRGB">
            <feFlood flood-opacity="0" result="BackgroundImageFix"/>
            <feColorMatrix in="SourceAlpha" values="0 0 0 0 0 0 0 0 0 0 0 0 0 0 0 0 0 0 127 0" result="hardAlpha"/>
            <feOffset dy="4"/>
            <feGaussianBlur stdDeviation="2"/>
            <feComposite in2="hardAlpha" operator="out"/>
            <feColorMatrix values="0 0 0 0 0 0 0 0 0 0 0 0 0 0 0 0 0 0 0.25 0"/>
            <feBlend in2="BackgroundImageFix" result="effect1_dropShadow_406_608"/>
            <feBlend in="SourceGraphic" in2="effect1_dropShadow_406_608" result="shape"/>
        </filter>
    </defs>
</svg>
