<svg width="299" height="200" viewBox="0 0 299 200" fill="none" xmlns="http://www.w3.org/2000/svg">
<path d="M69.2639 94.8927L54.8965 136.267L116.279 157.582L130.647 116.208L69.2639 94.8927Z" fill="#EBEBEB"/>
<path d="M130.643 116.198C130.401 116.34 130.146 116.459 129.882 116.553L127.653 117.454L119.409 120.679L92.0681 131.144L91.8408 131.228L91.7132 131.025L91.3983 130.531L75.643 105.391L70.9228 97.7362L69.667 95.6392C69.5116 95.4006 69.3781 95.1484 69.2683 94.8857C69.4566 95.0988 69.6235 95.3298 69.7666 95.5754L71.1181 97.6126L75.9938 105.183L91.9006 130.232C92.0043 130.403 92.1119 130.57 92.2116 130.726L91.8568 130.606L119.261 120.309L127.573 117.243L129.842 116.446C130.1 116.337 130.369 116.254 130.643 116.198Z" fill="#E0E0E0"/>
<path d="M54.8963 136.279C54.8126 136.139 61.3986 132.073 69.6031 127.193C77.8077 122.314 84.5292 118.475 84.6129 118.614C84.6966 118.754 78.1107 122.82 69.9021 127.7C61.6936 132.579 54.98 136.399 54.8963 136.279Z" fill="#E0E0E0"/>
<path d="M105.196 125.16C105.347 125.109 107.955 132.336 111.017 141.271C114.078 150.205 116.434 157.52 116.279 157.572C116.123 157.624 113.52 150.396 110.458 141.462C107.397 132.528 105.041 125.212 105.196 125.16Z" fill="#E0E0E0"/>
<path d="M250.404 84.1238L189.665 94.4189L196.604 135.36L257.344 125.065L250.404 84.1238Z" fill="#E0E0E0"/>
<path d="M250.399 84.1416C250.262 84.3698 250.105 84.5846 249.928 84.7835L248.489 86.5495L243.107 92.992C238.486 98.4418 232.163 105.901 225.167 114.161L225.019 114.337L224.82 114.225L224.334 113.958L199.768 100.252L192.357 96.0418L190.363 94.8737C190.123 94.7499 189.896 94.6016 189.686 94.4312C189.939 94.5243 190.185 94.639 190.419 94.774L192.472 95.8544L199.971 99.9049L224.617 113.46L225.103 113.727L224.756 113.79L242.832 92.7289L248.345 86.402C248.979 85.6964 249.482 85.1303 249.864 84.6997C250.027 84.4998 250.206 84.3132 250.399 84.1416Z" fill="#EBEBEB"/>
<path d="M196.598 135.374C196.467 135.294 200.083 128.908 204.675 121.11C209.268 113.312 213.103 107.053 213.235 107.133C213.366 107.212 209.75 113.595 205.158 121.397C200.565 129.199 196.73 135.45 196.598 135.374Z" fill="#EBEBEB"/>
<path d="M233.339 103.189C233.443 103.078 238.921 107.882 245.527 113.925C252.133 119.969 257.443 124.961 257.335 125.088C257.227 125.216 251.778 120.388 245.148 114.352C238.518 108.316 233.22 103.313 233.339 103.189Z" fill="#EBEBEB"/>
<path d="M189.69 19.0457L178.748 46.8672L220.026 63.102L230.968 35.2805L189.69 19.0457Z" fill="#EBEBEB"/>
<path d="M230.955 35.6516C230.788 35.7451 230.61 35.8186 230.425 35.8709L228.882 36.429L223.169 38.4024L204.229 44.7811L204.073 44.8329L203.994 44.6894L203.794 44.3465L193.752 26.7613C192.496 24.5328 191.475 22.7149 190.746 21.4112L189.948 19.9481C189.847 19.7811 189.762 19.6049 189.693 19.4219C189.817 19.5723 189.926 19.7338 190.02 19.9043C190.236 20.267 190.523 20.7415 190.885 21.3315L194.003 26.6218C196.618 31.1387 200.202 37.318 204.157 44.1631L204.356 44.51L204.121 44.4183L223.094 38.1512L228.834 36.2815L230.401 35.815C230.581 35.7459 230.767 35.6913 230.955 35.6516Z" fill="#E0E0E0"/>
<path d="M178.738 47.2449C178.682 47.1492 183.287 44.5539 189.02 41.4523C194.752 38.3506 199.441 35.9188 199.493 36.0144C199.544 36.1101 194.948 38.7054 189.211 41.7951C183.474 44.8848 178.79 47.3446 178.738 47.2449Z" fill="#E0E0E0"/>
<path d="M213.35 41.0617C213.458 41.0298 215.037 46.0251 216.875 52.2243C218.713 58.4236 220.124 63.4588 220.016 63.4907C219.909 63.5226 218.33 58.5312 216.492 52.328C214.654 46.1247 213.243 41.0936 213.35 41.0617Z" fill="#E0E0E0"/>
<path d="M109.33 86.0069L203.364 85.3252L205.983 149.255L108.613 148.354L109.33 86.0069Z" fill="#FFCC00"/>
<path d="M109.326 86.0068L153.833 49.9952C154.748 49.2562 155.889 48.8551 157.065 48.8594C158.241 48.8638 159.379 49.2734 160.288 50.0191L203.364 85.3251" fill="#FFCC00"/>
<g opacity="0.3">
<path opacity="0.3" d="M109.326 86.0068L153.833 49.9952C154.748 49.2562 155.889 48.8551 157.065 48.8594C158.241 48.8638 159.379 49.2734 160.288 50.0191L203.364 85.3251" fill="black"/>
</g>
<path d="M108.613 148.355C108.497 148.243 116.024 140.023 125.428 129.996C134.833 119.97 142.547 111.929 142.667 112.036C142.786 112.144 135.256 120.364 125.851 130.395C116.446 140.425 108.732 148.462 108.613 148.355Z" fill="#263238"/>
<path d="M205.983 149.255C205.863 149.363 198.532 141.31 189.61 131.271C180.688 121.233 173.552 113.004 173.663 112.897C173.775 112.789 181.114 120.842 190.036 130.884C198.959 140.927 206.111 149.147 205.983 149.255Z" fill="#263238"/>
<g opacity="0.5">
<path opacity="0.5" d="M203.364 85.3252L156.142 123.047L109.33 86.0069" fill="black"/>
</g>
<path d="M114.062 89.4988L113.919 60.133L196.256 59.1562L197.184 90.0569L156.138 122.552L114.062 89.4988Z" fill="#FAFAFA"/>
<path d="M114.062 89.4988C114.062 89.4988 114.33 89.6982 114.836 90.0928L117.068 91.831L125.58 98.4768L156.202 122.485H156.098L197.133 89.9772L197.093 90.0609C196.917 84.1687 196.73 77.9813 196.539 71.6904C196.415 67.4526 196.287 63.2666 196.164 59.1603L196.268 59.26L113.931 60.1968L113.995 60.133C114.027 69.3701 114.054 76.7096 114.07 81.7408C114.07 84.2564 114.07 86.1939 114.07 87.5055V88.9925C114.07 89.3274 114.07 89.4988 114.07 89.4988C114.07 89.4988 114.07 89.3314 114.07 89.0005C114.07 88.6696 114.07 88.1713 114.07 87.5214C114.07 86.2098 114.043 84.2763 114.023 81.7647C113.991 76.7255 113.943 69.3821 113.883 60.133V60.0653H113.947L196.287 59.0566H196.387V59.1603C196.511 63.2626 196.634 67.4486 196.762 71.6864C196.953 77.9813 197.137 84.1647 197.316 90.0609V90.1128L197.276 90.1447L156.213 122.624L156.162 122.664L156.11 122.624L125.508 98.5366L117.048 91.8589L114.816 90.1048C114.314 89.7061 114.062 89.4988 114.062 89.4988Z" fill="#263238"/>
<path d="M183.243 73.9474C183.243 74.0032 170.649 74.1268 155.121 74.2185C139.593 74.3102 126.995 74.3461 126.995 74.2863C126.995 74.2265 139.585 74.1069 155.121 74.0112C170.657 73.9155 183.243 73.8876 183.243 73.9474Z" fill="#263238"/>
<path d="M183.243 82.2395C183.243 82.2993 170.649 82.4229 155.121 82.5145C139.593 82.6062 126.995 82.6381 126.995 82.5823C126.995 82.5265 139.585 82.4029 155.121 82.3072C170.657 82.2116 183.243 82.1837 183.243 82.2395Z" fill="#263238"/>
<path d="M183.243 91.8028C183.243 91.8586 170.649 91.9822 155.121 92.0779C139.593 92.1736 126.995 92.2015 126.995 92.1417C126.995 92.0819 139.585 91.9623 155.121 91.8706C170.657 91.7789 183.243 91.743 183.243 91.8028Z" fill="#263238"/>
<path d="M183.243 101.363C183.243 101.423 171.231 101.538 156.413 101.63C141.594 101.722 129.583 101.746 129.579 101.69C129.575 101.634 141.59 101.514 156.413 101.423C171.235 101.331 183.243 101.307 183.243 101.363Z" fill="#263238"/>
<path d="M172.71 109.755C172.602 109.774 172.493 109.782 172.383 109.779L171.435 109.807L167.958 109.863L156.481 110.026C152 110.102 147.937 110.126 144.999 110.13H141.523H140.574C140.464 110.132 140.355 110.125 140.247 110.11C140.355 110.092 140.464 110.084 140.574 110.086L141.523 110.062L144.999 110.002L156.477 109.839C160.958 109.763 165.02 109.739 167.954 109.735H171.435H172.383C172.493 109.735 172.602 109.742 172.71 109.755Z" fill="#263238"/>
<path d="M162.11 117.824C162.11 117.88 159.427 117.928 156.13 117.928C152.833 117.928 150.15 117.88 150.15 117.824C150.15 117.769 152.837 117.721 156.13 117.721C159.423 117.721 162.11 117.765 162.11 117.824Z" fill="#263238"/>
<path d="M114.708 46.7174H123.806L122.574 45.3061V41.9214C122.574 41.0417 122.224 40.198 121.602 39.576C120.98 38.954 120.137 38.6045 119.257 38.6045C118.822 38.6045 118.391 38.6903 117.988 38.8571C117.586 39.0238 117.221 39.2682 116.913 39.5762C116.605 39.8843 116.361 40.25 116.195 40.6524C116.029 41.0548 115.944 41.486 115.944 41.9214V45.1386L114.708 46.7174Z" fill="#FFCC00"/>
<path d="M118.005 46.2712C118.015 46.4693 118.067 46.663 118.158 46.8395C118.248 47.0161 118.375 47.1714 118.53 47.2954C118.685 47.4194 118.864 47.5091 119.056 47.5587C119.248 47.6083 119.448 47.6167 119.644 47.5832C119.839 47.5497 120.025 47.4752 120.19 47.3645C120.355 47.2538 120.494 47.1095 120.599 46.9411C120.703 46.7727 120.771 46.584 120.798 46.3874C120.824 46.1909 120.809 45.9909 120.752 45.8008" fill="#FFCC00"/>
<path d="M119.763 37.2256H118.87V39.1232H119.763V37.2256Z" fill="#FFCC00"/>
<path d="M132.521 40.4943C132.494 40.4162 132.472 40.3363 132.457 40.2551C132.417 40.0837 132.365 39.8564 132.297 39.5535C132.214 39.1721 132.106 38.7966 131.975 38.4292C131.895 38.2139 131.839 37.9708 131.731 37.7276L131.393 36.9542C130.779 35.6476 129.965 34.4451 128.981 33.3901C127.687 32.0265 126.121 30.9507 124.384 30.2326C123.395 29.8163 122.359 29.5217 121.298 29.3556C120.155 29.1889 118.994 29.1701 117.846 29.2998C117.242 29.3633 116.642 29.4672 116.052 29.6107C115.753 29.6745 115.462 29.7901 115.159 29.8818C114.855 29.9662 114.557 30.0742 114.27 30.2047C113.048 30.6987 111.912 31.3807 110.901 32.226C108.658 34.0754 107.077 36.6037 106.396 39.4299C106.038 40.944 105.95 42.5097 106.137 44.0544C106.301 45.6523 106.765 47.205 107.504 48.6311L107.736 49.0656L107.764 49.1215V49.1813C107.026 51.5733 106.308 53.9653 105.607 56.2496L105.419 56.0782L111.116 53.1081L111.184 53.0722L111.248 53.1201C113.63 54.9568 116.565 55.9289 119.573 55.8767C122.58 55.8246 125.48 54.7512 127.797 52.8331C128.984 51.8399 129.997 50.6539 130.791 49.3248C131.425 48.2148 131.914 47.0276 132.246 45.7926C132.469 44.8546 132.603 43.8975 132.644 42.9342C132.644 42.5355 132.644 42.1926 132.644 41.8857C132.644 41.5787 132.596 41.3355 132.581 41.1242C132.565 40.9129 132.549 40.7734 132.541 40.6578C132.534 40.6048 132.534 40.5513 132.541 40.4983C132.555 40.5492 132.564 40.6012 132.569 40.6538C132.569 40.7707 132.589 40.9262 132.628 41.1202C132.652 41.3315 132.68 41.5827 132.716 41.8857C132.752 42.1887 132.716 42.5435 132.716 42.9381C132.694 43.9099 132.574 44.8769 132.357 45.8245C132.039 47.0785 131.556 48.2849 130.922 49.4125C130.128 50.7706 129.109 51.9839 127.908 53.0005C126.438 54.2276 124.723 55.1276 122.878 55.6404C121.033 56.1532 119.1 56.2671 117.208 55.9745C114.981 55.6208 112.875 54.7209 111.08 53.3553H111.216L105.527 56.3333L105.24 56.4848L105.336 56.1619L107.488 49.0936V49.2092L107.253 48.7666C106.499 47.3091 106.026 45.7228 105.858 44.0903C105.663 42.5094 105.755 40.9063 106.129 39.3581C106.826 36.4766 108.443 33.9004 110.734 32.0187C111.768 31.1631 112.928 30.4731 114.174 29.9735C114.467 29.841 114.769 29.7317 115.079 29.6466C115.386 29.5589 115.681 29.4433 115.988 29.3795C116.587 29.2321 117.196 29.1282 117.81 29.0685C118.978 28.94 120.157 28.9641 121.318 29.1403C122.392 29.3184 123.442 29.6235 124.444 30.0492C126.2 30.7885 127.778 31.8919 129.076 33.2864C130.061 34.3609 130.869 35.5856 131.468 36.9143C131.584 37.1934 131.696 37.4525 131.795 37.7116C131.895 37.9708 131.955 38.206 132.03 38.4252C132.16 38.7955 132.26 39.1755 132.329 39.5614C132.385 39.8604 132.433 40.0956 132.465 40.2711C132.488 40.3442 132.507 40.4188 132.521 40.4943Z" fill="#263238"/>
</svg>
